<svg width="240" height="40" viewBox="0 0 240 40" fill="none" xmlns="http://www.w3.org/2000/svg">
<path d="M36 10C30.48 10 26 14.48 26 20C26 25.52 30.48 30 36 30C41.52 30 46 25.52 46 20C46 14.48 41.52 10 36 10ZM37 27H35V25H37V27ZM39.07 19.25L38.17 20.17C37.45 20.9 37 21.5 37 23H35V22.5C35 21.4 35.45 20.4 36.17 19.67L37.41 18.41C37.78 18.05 38 17.55 38 17C38 15.9 37.1 15 36 15C34.9 15 34 15.9 34 17H32C32 14.79 33.79 13 36 13C38.21 13 40 14.79 40 17C40 17.88 39.64 18.68 39.07 19.25Z" fill="#606060"/>
<path d="M79.8047 25H78.4854V20.3994H73.4678V25H72.1553V15.0469H73.4678V19.3262H78.4854V15.0469H79.8047V25ZM85.0068 25.1367C84.0042 25.1367 83.1885 24.8086 82.5596 24.1523C81.9307 23.4915 81.6162 22.6097 81.6162 21.5068V21.2744C81.6162 20.5407 81.7552 19.8867 82.0332 19.3125C82.3158 18.7337 82.7077 18.2826 83.209 17.959C83.7148 17.6309 84.2617 17.4668 84.8496 17.4668C85.8112 17.4668 86.5586 17.7835 87.0918 18.417C87.625 19.0505 87.8916 19.9574 87.8916 21.1377V21.6641H82.8809C82.8991 22.3932 83.111 22.9834 83.5166 23.4346C83.9268 23.8812 84.4463 24.1045 85.0752 24.1045C85.5218 24.1045 85.9001 24.0133 86.21 23.8311C86.5199 23.6488 86.791 23.4072 87.0234 23.1064L87.7959 23.708C87.1761 24.6605 86.2464 25.1367 85.0068 25.1367ZM84.8496 18.5059C84.3392 18.5059 83.9108 18.6927 83.5645 19.0664C83.2181 19.4355 83.0039 19.9551 82.9219 20.625H86.627V20.5293C86.5905 19.8867 86.4173 19.39 86.1074 19.0391C85.7975 18.6836 85.3783 18.5059 84.8496 18.5059ZM90.7354 25H89.4707V14.5H90.7354V25ZM99.0137 21.3838C99.0137 22.5094 98.7562 23.4163 98.2412 24.1045C97.7262 24.7926 97.029 25.1367 96.1494 25.1367C95.2516 25.1367 94.5452 24.8519 94.0303 24.2822V27.8438H92.7656V17.6035H93.9209L93.9824 18.4238C94.4974 17.7858 95.2129 17.4668 96.1289 17.4668C97.0176 17.4668 97.7194 17.8018 98.2344 18.4717C98.7539 19.1416 99.0137 20.0736 99.0137 21.2676V21.3838ZM97.749 21.2402C97.749 20.4062 97.5713 19.7477 97.2158 19.2646C96.8604 18.7816 96.3727 18.54 95.7529 18.54C94.9873 18.54 94.4131 18.8796 94.0303 19.5586V23.0928C94.4085 23.7673 94.9873 24.1045 95.7666 24.1045C96.3727 24.1045 96.8535 23.8652 97.209 23.3867C97.569 22.9036 97.749 22.1882 97.749 21.2402Z" fill="#030303"/>
</svg>
