<svg width="240" height="40" viewBox="0 0 240 40" fill="none" xmlns="http://www.w3.org/2000/svg">
<path d="M28 14H26V28C26 29.1 26.9 30 28 30H42V28H28V14ZM44 10H32C30.9 10 30 10.9 30 12V24C30 25.1 30.9 26 32 26H44C45.1 26 46 25.1 46 24V12C46 10.9 45.1 10 44 10ZM36 22.5V13.5L42 18L36 22.5Z" fill="#606060"/>
<path d="M73.4746 23.9268H78.1914V25H72.1553V15.0469H73.4746V23.9268ZM80.8643 25H79.5996V17.6035H80.8643V25ZM79.4971 15.6416C79.4971 15.4365 79.5586 15.2633 79.6816 15.1221C79.8092 14.9808 79.9961 14.9102 80.2422 14.9102C80.4883 14.9102 80.6751 14.9808 80.8027 15.1221C80.9303 15.2633 80.9941 15.4365 80.9941 15.6416C80.9941 15.8467 80.9303 16.0176 80.8027 16.1543C80.6751 16.291 80.4883 16.3594 80.2422 16.3594C79.9961 16.3594 79.8092 16.291 79.6816 16.1543C79.5586 16.0176 79.4971 15.8467 79.4971 15.6416ZM89.1562 21.3838C89.1562 22.514 88.8965 23.4232 88.377 24.1113C87.8574 24.7949 87.1602 25.1367 86.2852 25.1367C85.3509 25.1367 84.6286 24.8063 84.1182 24.1455L84.0566 25H82.8945V14.5H84.1592V18.417C84.6696 17.7835 85.3737 17.4668 86.2715 17.4668C87.1693 17.4668 87.8734 17.8063 88.3838 18.4854C88.8988 19.1644 89.1562 20.0941 89.1562 21.2744V21.3838ZM87.8916 21.2402C87.8916 20.3789 87.7253 19.7135 87.3926 19.2441C87.0599 18.7747 86.5814 18.54 85.957 18.54C85.123 18.54 84.5238 18.9274 84.1592 19.7021V22.9014C84.5465 23.6761 85.1504 24.0635 85.9707 24.0635C86.5768 24.0635 87.0485 23.8288 87.3857 23.3594C87.723 22.89 87.8916 22.1836 87.8916 21.2402ZM94.3311 18.7383C94.1396 18.7064 93.9323 18.6904 93.709 18.6904C92.8796 18.6904 92.3167 19.0436 92.0205 19.75V25H90.7559V17.6035H91.9863L92.0068 18.458C92.4215 17.7972 93.0094 17.4668 93.7705 17.4668C94.0166 17.4668 94.2035 17.4987 94.3311 17.5625V18.7383ZM99.793 25C99.7201 24.8542 99.6608 24.5944 99.6152 24.2207C99.0273 24.8314 98.3255 25.1367 97.5098 25.1367C96.7806 25.1367 96.1813 24.9316 95.7119 24.5215C95.2471 24.1068 95.0146 23.5827 95.0146 22.9492C95.0146 22.179 95.3063 21.582 95.8896 21.1582C96.4775 20.7298 97.3024 20.5156 98.3643 20.5156H99.5947V19.9346C99.5947 19.4925 99.4626 19.1416 99.1982 18.8818C98.9339 18.6175 98.5443 18.4854 98.0293 18.4854C97.5781 18.4854 97.1999 18.5993 96.8945 18.8271C96.5892 19.055 96.4365 19.3307 96.4365 19.6543H95.165C95.165 19.2852 95.2949 18.9297 95.5547 18.5879C95.819 18.2415 96.1745 17.9681 96.6211 17.7676C97.0723 17.5671 97.5667 17.4668 98.1045 17.4668C98.9567 17.4668 99.6243 17.681 100.107 18.1094C100.59 18.5332 100.841 19.1188 100.859 19.8662V23.2705C100.859 23.9495 100.946 24.4896 101.119 24.8906V25H99.793ZM97.6943 24.0361C98.0908 24.0361 98.4668 23.9336 98.8223 23.7285C99.1777 23.5234 99.4352 23.2568 99.5947 22.9287V21.4111H98.6035C97.054 21.4111 96.2793 21.8646 96.2793 22.7715C96.2793 23.168 96.4115 23.4779 96.6758 23.7012C96.9401 23.9245 97.2796 24.0361 97.6943 24.0361ZM106.417 18.7383C106.226 18.7064 106.018 18.6904 105.795 18.6904C104.965 18.6904 104.403 19.0436 104.106 19.75V25H102.842V17.6035H104.072L104.093 18.458C104.507 17.7972 105.095 17.4668 105.856 17.4668C106.103 17.4668 106.289 17.4987 106.417 17.5625V18.7383ZM110.129 23.1475L111.852 17.6035H113.205L110.231 26.1416C109.771 27.3721 109.04 27.9873 108.037 27.9873L107.798 27.9668L107.326 27.8779V26.8525L107.668 26.8799C108.096 26.8799 108.429 26.7933 108.666 26.6201C108.908 26.4469 109.106 26.1302 109.261 25.6699L109.541 24.918L106.902 17.6035H108.283L110.129 23.1475Z" fill="#030303"/>
</svg>
