<svg width="240" height="40" viewBox="0 0 240 40" fill="none" xmlns="http://www.w3.org/2000/svg">
<path d="M40.94 14.91L39.53 16.36C40.43 17.3 40.99 18.58 40.99 20C40.99 21.42 40.43 22.71 39.53 23.64L40.94 25.09C42.21 23.78 42.99 21.98 42.99 20C42.99 18.02 42.21 16.21 40.94 14.91ZM43.77 12L42.36 13.45C43.98 15.13 45 17.44 45 20.01C45 22.58 43.99 24.89 42.36 26.55L43.76 28C45.77 25.96 47 23.13 47 20.01C47 16.88 45.77 14.05 43.77 12ZM31.06 14.91C29.79 16.21 29.01 18.01 29.01 20C29.01 21.99 29.79 23.79 31.06 25.09L32.47 23.64C31.57 22.7 31.01 21.42 31.01 20C31.01 18.58 31.57 17.29 32.47 16.36L31.06 14.91ZM29.64 13.45L28.24 12C26.23 14.04 25 16.87 25 19.99C25 23.12 26.23 25.95 28.23 28L29.64 26.55C28.02 24.87 27 22.56 27 19.99C27 17.42 28.01 15.11 29.64 13.45Z" fill="#606060"/>
<path d="M36 23C37.6569 23 39 21.6569 39 20C39 18.3431 37.6569 17 36 17C34.3431 17 33 18.3431 33 20C33 21.6569 34.3431 23 36 23Z" fill="#606060"/>
<path d="M73.4746 23.9268H78.1914V25H72.1553V15.0469H73.4746V23.9268ZM80.8643 25H79.5996V17.6035H80.8643V25ZM79.4971 15.6416C79.4971 15.4365 79.5586 15.2633 79.6816 15.1221C79.8092 14.9808 79.9961 14.9102 80.2422 14.9102C80.4883 14.9102 80.6751 14.9808 80.8027 15.1221C80.9303 15.2633 80.9941 15.4365 80.9941 15.6416C80.9941 15.8467 80.9303 16.0176 80.8027 16.1543C80.6751 16.291 80.4883 16.3594 80.2422 16.3594C79.9961 16.3594 79.8092 16.291 79.6816 16.1543C79.5586 16.0176 79.4971 15.8467 79.4971 15.6416ZM85.335 23.2842L87.167 17.6035H88.459L85.8066 25H84.8428L82.1631 17.6035H83.4551L85.335 23.2842ZM92.6494 25.1367C91.6468 25.1367 90.8311 24.8086 90.2021 24.1523C89.5732 23.4915 89.2588 22.6097 89.2588 21.5068V21.2744C89.2588 20.5407 89.3978 19.8867 89.6758 19.3125C89.9583 18.7337 90.3503 18.2826 90.8516 17.959C91.3574 17.6309 91.9043 17.4668 92.4922 17.4668C93.4538 17.4668 94.2012 17.7835 94.7344 18.417C95.2676 19.0505 95.5342 19.9574 95.5342 21.1377V21.6641H90.5234C90.5417 22.3932 90.7536 22.9834 91.1592 23.4346C91.5693 23.8812 92.0889 24.1045 92.7178 24.1045C93.1644 24.1045 93.5426 24.0133 93.8525 23.8311C94.1624 23.6488 94.4336 23.4072 94.666 23.1064L95.4385 23.708C94.8187 24.6605 93.889 25.1367 92.6494 25.1367ZM92.4922 18.5059C91.9818 18.5059 91.5534 18.6927 91.207 19.0664C90.8607 19.4355 90.6465 19.9551 90.5645 20.625H94.2695V20.5293C94.2331 19.8867 94.0599 19.39 93.75 19.0391C93.4401 18.6836 93.0208 18.5059 92.4922 18.5059Z" fill="#030303"/>
</svg>
