<svg width="240" height="40" viewBox="0 0 240 40" fill="none" xmlns="http://www.w3.org/2000/svg">
<path d="M38.4 14L38 12H29V29H31V22H36.6L37 24H44V14H38.4Z" fill="#606060"/>
<path d="M75.8057 20.9736H73.4678V25H72.1484V15.0469H75.4434C76.5645 15.0469 77.4258 15.3021 78.0273 15.8125C78.6335 16.3229 78.9365 17.0658 78.9365 18.041C78.9365 18.6608 78.7679 19.2008 78.4307 19.6611C78.098 20.1214 77.6331 20.4655 77.0361 20.6934L79.374 24.918V25H77.9658L75.8057 20.9736ZM73.4678 19.9004H75.4844C76.1361 19.9004 76.6533 19.7318 77.0361 19.3945C77.4235 19.0573 77.6172 18.6061 77.6172 18.041C77.6172 17.4258 77.4326 16.9541 77.0635 16.626C76.6989 16.2979 76.1702 16.1315 75.4775 16.127H73.4678V19.9004ZM83.6533 25.1367C82.6507 25.1367 81.835 24.8086 81.2061 24.1523C80.5771 23.4915 80.2627 22.6097 80.2627 21.5068V21.2744C80.2627 20.5407 80.4017 19.8867 80.6797 19.3125C80.9622 18.7337 81.3542 18.2826 81.8555 17.959C82.3613 17.6309 82.9082 17.4668 83.4961 17.4668C84.4577 17.4668 85.2051 17.7835 85.7383 18.417C86.2715 19.0505 86.5381 19.9574 86.5381 21.1377V21.6641H81.5273C81.5456 22.3932 81.7575 22.9834 82.1631 23.4346C82.5732 23.8812 83.0928 24.1045 83.7217 24.1045C84.1683 24.1045 84.5465 24.0133 84.8564 23.8311C85.1663 23.6488 85.4375 23.4072 85.6699 23.1064L86.4424 23.708C85.8226 24.6605 84.8929 25.1367 83.6533 25.1367ZM83.4961 18.5059C82.9857 18.5059 82.5573 18.6927 82.2109 19.0664C81.8646 19.4355 81.6504 19.9551 81.5684 20.625H85.2734V20.5293C85.237 19.8867 85.0638 19.39 84.7539 19.0391C84.444 18.6836 84.0247 18.5059 83.4961 18.5059ZM94.2559 21.3838C94.2559 22.5094 93.9984 23.4163 93.4834 24.1045C92.9684 24.7926 92.2712 25.1367 91.3916 25.1367C90.4938 25.1367 89.7874 24.8519 89.2725 24.2822V27.8438H88.0078V17.6035H89.1631L89.2246 18.4238C89.7396 17.7858 90.4551 17.4668 91.3711 17.4668C92.2598 17.4668 92.9616 17.8018 93.4766 18.4717C93.9961 19.1416 94.2559 20.0736 94.2559 21.2676V21.3838ZM92.9912 21.2402C92.9912 20.4062 92.8135 19.7477 92.458 19.2646C92.1025 18.7816 91.6149 18.54 90.9951 18.54C90.2295 18.54 89.6553 18.8796 89.2725 19.5586V23.0928C89.6507 23.7673 90.2295 24.1045 91.0088 24.1045C91.6149 24.1045 92.0957 23.8652 92.4512 23.3867C92.8112 22.9036 92.9912 22.1882 92.9912 21.2402ZM95.5342 21.2334C95.5342 20.5088 95.6755 19.8571 95.958 19.2783C96.2451 18.6995 96.6416 18.2529 97.1475 17.9385C97.6579 17.624 98.2389 17.4668 98.8906 17.4668C99.8978 17.4668 100.711 17.8154 101.331 18.5127C101.955 19.21 102.268 20.1374 102.268 21.2949V21.3838C102.268 22.1038 102.129 22.751 101.851 23.3252C101.577 23.8949 101.183 24.3392 100.668 24.6582C100.158 24.9772 99.5697 25.1367 98.9043 25.1367C97.9017 25.1367 97.0882 24.7881 96.4639 24.0908C95.8441 23.3936 95.5342 22.4707 95.5342 21.3223V21.2334ZM96.8057 21.3838C96.8057 22.2041 96.9948 22.8626 97.373 23.3594C97.7559 23.8561 98.2663 24.1045 98.9043 24.1045C99.5469 24.1045 100.057 23.8538 100.436 23.3525C100.814 22.8467 101.003 22.1403 101.003 21.2334C101.003 20.4222 100.809 19.766 100.422 19.2646C100.039 18.7588 99.5286 18.5059 98.8906 18.5059C98.2663 18.5059 97.7627 18.7542 97.3799 19.251C96.9971 19.7477 96.8057 20.4587 96.8057 21.3838ZM107.429 18.7383C107.237 18.7064 107.03 18.6904 106.807 18.6904C105.977 18.6904 105.414 19.0436 105.118 19.75V25H103.854V17.6035H105.084L105.104 18.458C105.519 17.7972 106.107 17.4668 106.868 17.4668C107.114 17.4668 107.301 17.4987 107.429 17.5625V18.7383ZM110.655 15.8125V17.6035H112.036V18.5811H110.655V23.168C110.655 23.4642 110.717 23.6875 110.84 23.8379C110.963 23.9837 111.173 24.0566 111.469 24.0566C111.615 24.0566 111.815 24.0293 112.07 23.9746V25C111.738 25.0911 111.414 25.1367 111.1 25.1367C110.535 25.1367 110.108 24.9658 109.821 24.624C109.534 24.2822 109.391 23.7969 109.391 23.168V18.5811H108.044V17.6035H109.391V15.8125H110.655ZM118.257 18.499C118.817 17.8109 119.547 17.4668 120.444 17.4668C122.007 17.4668 122.796 18.3486 122.81 20.1123V25H121.545V20.1055C121.54 19.5723 121.417 19.1781 121.176 18.9229C120.939 18.6676 120.567 18.54 120.062 18.54C119.651 18.54 119.291 18.6494 118.981 18.8682C118.672 19.0869 118.43 19.374 118.257 19.7295V25H116.992V14.5H118.257V18.499ZM126.077 25H124.812V17.6035H126.077V25ZM124.71 15.6416C124.71 15.4365 124.771 15.2633 124.895 15.1221C125.022 14.9808 125.209 14.9102 125.455 14.9102C125.701 14.9102 125.888 14.9808 126.016 15.1221C126.143 15.2633 126.207 15.4365 126.207 15.6416C126.207 15.8467 126.143 16.0176 126.016 16.1543C125.888 16.291 125.701 16.3594 125.455 16.3594C125.209 16.3594 125.022 16.291 124.895 16.1543C124.771 16.0176 124.71 15.8467 124.71 15.6416ZM132.414 23.0381C132.414 22.6963 132.284 22.432 132.024 22.2451C131.769 22.0537 131.32 21.8896 130.678 21.7529C130.04 21.6162 129.532 21.4521 129.153 21.2607C128.78 21.0693 128.502 20.8415 128.319 20.5771C128.142 20.3128 128.053 19.9984 128.053 19.6338C128.053 19.0277 128.308 18.515 128.818 18.0957C129.333 17.6764 129.99 17.4668 130.787 17.4668C131.626 17.4668 132.305 17.6833 132.824 18.1162C133.348 18.5492 133.61 19.1029 133.61 19.7773H132.339C132.339 19.431 132.191 19.1325 131.895 18.8818C131.603 18.6312 131.234 18.5059 130.787 18.5059C130.327 18.5059 129.967 18.6061 129.707 18.8066C129.447 19.0072 129.317 19.2692 129.317 19.5928C129.317 19.8981 129.438 20.1283 129.68 20.2832C129.921 20.4382 130.356 20.5863 130.985 20.7275C131.619 20.8688 132.132 21.0374 132.523 21.2334C132.915 21.4294 133.205 21.6663 133.392 21.9443C133.583 22.2178 133.679 22.5527 133.679 22.9492C133.679 23.61 133.414 24.141 132.886 24.542C132.357 24.9385 131.671 25.1367 130.828 25.1367C130.236 25.1367 129.712 25.0319 129.256 24.8223C128.8 24.6126 128.442 24.321 128.183 23.9473C127.927 23.569 127.8 23.1611 127.8 22.7236H129.064C129.087 23.1475 129.256 23.4847 129.57 23.7354C129.889 23.9814 130.309 24.1045 130.828 24.1045C131.307 24.1045 131.689 24.0088 131.977 23.8174C132.268 23.6214 132.414 23.3617 132.414 23.0381ZM137.042 15.8125V17.6035H138.423V18.5811H137.042V23.168C137.042 23.4642 137.104 23.6875 137.227 23.8379C137.35 23.9837 137.559 24.0566 137.855 24.0566C138.001 24.0566 138.202 24.0293 138.457 23.9746V25C138.124 25.0911 137.801 25.1367 137.486 25.1367C136.921 25.1367 136.495 24.9658 136.208 24.624C135.921 24.2822 135.777 23.7969 135.777 23.168V18.5811H134.431V17.6035H135.777V15.8125H137.042ZM139.435 21.2334C139.435 20.5088 139.576 19.8571 139.858 19.2783C140.146 18.6995 140.542 18.2529 141.048 17.9385C141.558 17.624 142.139 17.4668 142.791 17.4668C143.798 17.4668 144.612 17.8154 145.231 18.5127C145.856 19.21 146.168 20.1374 146.168 21.2949V21.3838C146.168 22.1038 146.029 22.751 145.751 23.3252C145.478 23.8949 145.083 24.3392 144.568 24.6582C144.058 24.9772 143.47 25.1367 142.805 25.1367C141.802 25.1367 140.989 24.7881 140.364 24.0908C139.744 23.3936 139.435 22.4707 139.435 21.3223V21.2334ZM140.706 21.3838C140.706 22.2041 140.895 22.8626 141.273 23.3594C141.656 23.8561 142.167 24.1045 142.805 24.1045C143.447 24.1045 143.958 23.8538 144.336 23.3525C144.714 22.8467 144.903 22.1403 144.903 21.2334C144.903 20.4222 144.71 19.766 144.322 19.2646C143.939 18.7588 143.429 18.5059 142.791 18.5059C142.167 18.5059 141.663 18.7542 141.28 19.251C140.897 19.7477 140.706 20.4587 140.706 21.3838ZM151.329 18.7383C151.138 18.7064 150.93 18.6904 150.707 18.6904C149.878 18.6904 149.315 19.0436 149.019 19.75V25H147.754V17.6035H148.984L149.005 18.458C149.42 17.7972 150.007 17.4668 150.769 17.4668C151.015 17.4668 151.201 17.4987 151.329 17.5625V18.7383ZM155.041 23.1475L156.764 17.6035H158.117L155.144 26.1416C154.683 27.3721 153.952 27.9873 152.949 27.9873L152.71 27.9668L152.238 27.8779V26.8525L152.58 26.8799C153.008 26.8799 153.341 26.7933 153.578 26.6201C153.82 26.4469 154.018 26.1302 154.173 25.6699L154.453 24.918L151.814 17.6035H153.195L155.041 23.1475Z" fill="#030303"/>
</svg>
