<svg width="240" height="40" viewBox="0 0 240 40" fill="none" xmlns="http://www.w3.org/2000/svg">
<path d="M42.3999 13.6V26.4H29.5999V13.6H42.3999ZM42.3999 11.8H29.5999C29.1225 11.8 28.6647 11.9897 28.3271 12.3272C27.9895 12.6648 27.7999 13.1226 27.7999 13.6V26.4C27.7863 26.6447 27.8228 26.8895 27.9071 27.1196C27.9915 27.3497 28.1219 27.5601 28.2904 27.738C28.4589 27.9158 28.662 28.0574 28.8872 28.1541C29.1123 28.2507 29.3549 28.3004 29.5999 28.3H42.3999C42.6532 28.3145 42.9067 28.2753 43.1438 28.185C43.3809 28.0946 43.5962 27.9552 43.7756 27.7758C43.955 27.5963 44.0945 27.381 44.1849 27.1439C44.2752 26.9068 44.3144 26.6533 44.2999 26.4V13.6C44.3003 13.355 44.2506 13.1125 44.154 12.8873C44.0573 12.6621 43.9157 12.459 43.7378 12.2905C43.56 12.122 43.3495 11.9916 43.1195 11.9072C42.8894 11.8229 42.6446 11.7864 42.3999 11.8Z" fill="#606060"/>
<path d="M34.2 17V23.5L39.2 20.3L34.2 17.1V17Z" fill="#606060"/>
<path d="M75.1904 20.0439L77.7881 15.0469H79.2783L75.8467 21.2881V25H74.5342V21.2881L71.1025 15.0469H72.6064L75.1904 20.0439ZM79.5791 21.2334C79.5791 20.5088 79.7204 19.8571 80.0029 19.2783C80.29 18.6995 80.6865 18.2529 81.1924 17.9385C81.7028 17.624 82.2839 17.4668 82.9355 17.4668C83.9427 17.4668 84.7562 17.8154 85.376 18.5127C86.0003 19.21 86.3125 20.1374 86.3125 21.2949V21.3838C86.3125 22.1038 86.1735 22.751 85.8955 23.3252C85.6221 23.8949 85.2279 24.3392 84.7129 24.6582C84.2025 24.9772 83.6146 25.1367 82.9492 25.1367C81.9466 25.1367 81.1331 24.7881 80.5088 24.0908C79.889 23.3936 79.5791 22.4707 79.5791 21.3223V21.2334ZM80.8506 21.3838C80.8506 22.2041 81.0397 22.8626 81.418 23.3594C81.8008 23.8561 82.3112 24.1045 82.9492 24.1045C83.5918 24.1045 84.1022 23.8538 84.4805 23.3525C84.8587 22.8467 85.0479 22.1403 85.0479 21.2334C85.0479 20.4222 84.8542 19.766 84.4668 19.2646C84.084 18.7588 83.5736 18.5059 82.9355 18.5059C82.3112 18.5059 81.8076 18.7542 81.4248 19.251C81.042 19.7477 80.8506 20.4587 80.8506 21.3838ZM92.4648 24.2686C91.9727 24.8473 91.2503 25.1367 90.2979 25.1367C89.5094 25.1367 88.9079 24.9089 88.4932 24.4531C88.083 23.9928 87.8757 23.3138 87.8711 22.416V17.6035H89.1357V22.3818C89.1357 23.5029 89.5915 24.0635 90.5029 24.0635C91.4691 24.0635 92.1117 23.7035 92.4307 22.9834V17.6035H93.6953V25H92.4922L92.4648 24.2686ZM99.1982 18.7383C99.0068 18.7064 98.7995 18.6904 98.5762 18.6904C97.7467 18.6904 97.1839 19.0436 96.8877 19.75V25H95.623V17.6035H96.8535L96.874 18.458C97.2887 17.7972 97.8766 17.4668 98.6377 17.4668C98.8838 17.4668 99.0706 17.4987 99.1982 17.5625V18.7383ZM106.28 23.2842L108.112 17.6035H109.404L106.752 25H105.788L103.108 17.6035H104.4L106.28 23.2842ZM111.995 25H110.73V17.6035H111.995V25ZM110.628 15.6416C110.628 15.4365 110.689 15.2633 110.812 15.1221C110.94 14.9808 111.127 14.9102 111.373 14.9102C111.619 14.9102 111.806 14.9808 111.934 15.1221C112.061 15.2633 112.125 15.4365 112.125 15.6416C112.125 15.8467 112.061 16.0176 111.934 16.1543C111.806 16.291 111.619 16.3594 111.373 16.3594C111.127 16.3594 110.94 16.291 110.812 16.1543C110.689 16.0176 110.628 15.8467 110.628 15.6416ZM113.718 21.2402C113.718 20.1055 113.987 19.194 114.524 18.5059C115.062 17.8132 115.766 17.4668 116.637 17.4668C117.503 17.4668 118.188 17.763 118.694 18.3555V14.5H119.959V25H118.797L118.735 24.207C118.229 24.8268 117.525 25.1367 116.623 25.1367C115.766 25.1367 115.067 24.7858 114.524 24.084C113.987 23.3822 113.718 22.4661 113.718 21.3359V21.2402ZM114.982 21.3838C114.982 22.2223 115.156 22.8786 115.502 23.3525C115.848 23.8265 116.327 24.0635 116.938 24.0635C117.74 24.0635 118.325 23.7035 118.694 22.9834V19.5859C118.316 18.8887 117.735 18.54 116.951 18.54C116.331 18.54 115.848 18.7793 115.502 19.2578C115.156 19.7363 114.982 20.445 114.982 21.3838ZM124.997 25.1367C123.994 25.1367 123.179 24.8086 122.55 24.1523C121.921 23.4915 121.606 22.6097 121.606 21.5068V21.2744C121.606 20.5407 121.745 19.8867 122.023 19.3125C122.306 18.7337 122.698 18.2826 123.199 17.959C123.705 17.6309 124.252 17.4668 124.84 17.4668C125.801 17.4668 126.549 17.7835 127.082 18.417C127.615 19.0505 127.882 19.9574 127.882 21.1377V21.6641H122.871C122.889 22.3932 123.101 22.9834 123.507 23.4346C123.917 23.8812 124.437 24.1045 125.065 24.1045C125.512 24.1045 125.89 24.0133 126.2 23.8311C126.51 23.6488 126.781 23.4072 127.014 23.1064L127.786 23.708C127.166 24.6605 126.237 25.1367 124.997 25.1367ZM124.84 18.5059C124.329 18.5059 123.901 18.6927 123.555 19.0664C123.208 19.4355 122.994 19.9551 122.912 20.625H126.617V20.5293C126.581 19.8867 126.408 19.39 126.098 19.0391C125.788 18.6836 125.368 18.5059 124.84 18.5059ZM129.017 21.2334C129.017 20.5088 129.158 19.8571 129.44 19.2783C129.728 18.6995 130.124 18.2529 130.63 17.9385C131.14 17.624 131.721 17.4668 132.373 17.4668C133.38 17.4668 134.194 17.8154 134.813 18.5127C135.438 19.21 135.75 20.1374 135.75 21.2949V21.3838C135.75 22.1038 135.611 22.751 135.333 23.3252C135.06 23.8949 134.665 24.3392 134.15 24.6582C133.64 24.9772 133.052 25.1367 132.387 25.1367C131.384 25.1367 130.571 24.7881 129.946 24.0908C129.326 23.3936 129.017 22.4707 129.017 21.3223V21.2334ZM130.288 21.3838C130.288 22.2041 130.477 22.8626 130.855 23.3594C131.238 23.8561 131.749 24.1045 132.387 24.1045C133.029 24.1045 133.54 23.8538 133.918 23.3525C134.296 22.8467 134.485 22.1403 134.485 21.2334C134.485 20.4222 134.292 19.766 133.904 19.2646C133.521 18.7588 133.011 18.5059 132.373 18.5059C131.749 18.5059 131.245 18.7542 130.862 19.251C130.479 19.7477 130.288 20.4587 130.288 21.3838ZM141.643 23.0381C141.643 22.6963 141.513 22.432 141.253 22.2451C140.998 22.0537 140.549 21.8896 139.906 21.7529C139.268 21.6162 138.76 21.4521 138.382 21.2607C138.008 21.0693 137.73 20.8415 137.548 20.5771C137.37 20.3128 137.281 19.9984 137.281 19.6338C137.281 19.0277 137.536 18.515 138.047 18.0957C138.562 17.6764 139.218 17.4668 140.016 17.4668C140.854 17.4668 141.533 17.6833 142.053 18.1162C142.577 18.5492 142.839 19.1029 142.839 19.7773H141.567C141.567 19.431 141.419 19.1325 141.123 18.8818C140.831 18.6312 140.462 18.5059 140.016 18.5059C139.555 18.5059 139.195 18.6061 138.936 18.8066C138.676 19.0072 138.546 19.2692 138.546 19.5928C138.546 19.8981 138.667 20.1283 138.908 20.2832C139.15 20.4382 139.585 20.5863 140.214 20.7275C140.847 20.8688 141.36 21.0374 141.752 21.2334C142.144 21.4294 142.433 21.6663 142.62 21.9443C142.812 22.2178 142.907 22.5527 142.907 22.9492C142.907 23.61 142.643 24.141 142.114 24.542C141.586 24.9385 140.9 25.1367 140.057 25.1367C139.464 25.1367 138.94 25.0319 138.484 24.8223C138.029 24.6126 137.671 24.321 137.411 23.9473C137.156 23.569 137.028 23.1611 137.028 22.7236H138.293C138.316 23.1475 138.484 23.4847 138.799 23.7354C139.118 23.9814 139.537 24.1045 140.057 24.1045C140.535 24.1045 140.918 24.0088 141.205 23.8174C141.497 23.6214 141.643 23.3617 141.643 23.0381Z" fill="#030303"/>
</svg>
