<svg width="240" height="40" viewBox="0 0 240 40" fill="none" xmlns="http://www.w3.org/2000/svg">
<path d="M45.78 16C45.78 16 45.58 14.63 44.98 14.03C44.23 13.23 43.38 13.23 42.98 13.18C40.2 12.98 36 13 36 13C36 13 31.82 12.98 29.03 13.18C28.63 13.23 27.79 13.23 27.03 14.03C26.43 14.63 26.23 16 26.23 16C26.23 16 26.03 17.63 26 19.23V20.93C26.03 22.53 26.23 24.13 26.23 24.13C26.23 24.13 26.43 25.53 27.03 26.13C27.79 26.93 28.78 26.89 29.23 26.98C30.8 27.13 35.83 27.16 36 27.16C36 27.16 40.2 27.16 43 26.96C43.38 26.92 44.23 26.92 45 26.12C45.6 25.52 45.8 24.14 45.8 24.14C45.8 24.14 46 22.54 46 20.92V19.22C45.98 17.62 45.78 16 45.78 16ZM33.98 23V17.16L39.33 20.19L33.97 23H33.98Z" fill="#606060"/>
<path d="M75.1904 20.0439L77.7881 15.0469H79.2783L75.8467 21.2881V25H74.5342V21.2881L71.1025 15.0469H72.6064L75.1904 20.0439ZM79.5791 21.2334C79.5791 20.5088 79.7204 19.8571 80.0029 19.2783C80.29 18.6995 80.6865 18.2529 81.1924 17.9385C81.7028 17.624 82.2839 17.4668 82.9355 17.4668C83.9427 17.4668 84.7562 17.8154 85.376 18.5127C86.0003 19.21 86.3125 20.1374 86.3125 21.2949V21.3838C86.3125 22.1038 86.1735 22.751 85.8955 23.3252C85.6221 23.8949 85.2279 24.3392 84.7129 24.6582C84.2025 24.9772 83.6146 25.1367 82.9492 25.1367C81.9466 25.1367 81.1331 24.7881 80.5088 24.0908C79.889 23.3936 79.5791 22.4707 79.5791 21.3223V21.2334ZM80.8506 21.3838C80.8506 22.2041 81.0397 22.8626 81.418 23.3594C81.8008 23.8561 82.3112 24.1045 82.9492 24.1045C83.5918 24.1045 84.1022 23.8538 84.4805 23.3525C84.8587 22.8467 85.0479 22.1403 85.0479 21.2334C85.0479 20.4222 84.8542 19.766 84.4668 19.2646C84.084 18.7588 83.5736 18.5059 82.9355 18.5059C82.3112 18.5059 81.8076 18.7542 81.4248 19.251C81.042 19.7477 80.8506 20.4587 80.8506 21.3838ZM92.4648 24.2686C91.9727 24.8473 91.2503 25.1367 90.2979 25.1367C89.5094 25.1367 88.9079 24.9089 88.4932 24.4531C88.083 23.9928 87.8757 23.3138 87.8711 22.416V17.6035H89.1357V22.3818C89.1357 23.5029 89.5915 24.0635 90.5029 24.0635C91.4691 24.0635 92.1117 23.7035 92.4307 22.9834V17.6035H93.6953V25H92.4922L92.4648 24.2686ZM102.698 16.127H99.499V25H98.1934V16.127H95.001V15.0469H102.698V16.127ZM107.887 24.2686C107.395 24.8473 106.672 25.1367 105.72 25.1367C104.931 25.1367 104.33 24.9089 103.915 24.4531C103.505 23.9928 103.298 23.3138 103.293 22.416V17.6035H104.558V22.3818C104.558 23.5029 105.013 24.0635 105.925 24.0635C106.891 24.0635 107.534 23.7035 107.853 22.9834V17.6035H109.117V25H107.914L107.887 24.2686ZM117.307 21.3838C117.307 22.514 117.047 23.4232 116.527 24.1113C116.008 24.7949 115.311 25.1367 114.436 25.1367C113.501 25.1367 112.779 24.8063 112.269 24.1455L112.207 25H111.045V14.5H112.31V18.417C112.82 17.7835 113.524 17.4668 114.422 17.4668C115.32 17.4668 116.024 17.8063 116.534 18.4854C117.049 19.1644 117.307 20.0941 117.307 21.2744V21.3838ZM116.042 21.2402C116.042 20.3789 115.876 19.7135 115.543 19.2441C115.21 18.7747 114.732 18.54 114.107 18.54C113.273 18.54 112.674 18.9274 112.31 19.7021V22.9014C112.697 23.6761 113.301 24.0635 114.121 24.0635C114.727 24.0635 115.199 23.8288 115.536 23.3594C115.873 22.89 116.042 22.1836 116.042 21.2402ZM121.976 25.1367C120.973 25.1367 120.157 24.8086 119.528 24.1523C118.899 23.4915 118.585 22.6097 118.585 21.5068V21.2744C118.585 20.5407 118.724 19.8867 119.002 19.3125C119.285 18.7337 119.676 18.2826 120.178 17.959C120.684 17.6309 121.23 17.4668 121.818 17.4668C122.78 17.4668 123.527 17.7835 124.061 18.417C124.594 19.0505 124.86 19.9574 124.86 21.1377V21.6641H119.85C119.868 22.3932 120.08 22.9834 120.485 23.4346C120.896 23.8812 121.415 24.1045 122.044 24.1045C122.491 24.1045 122.869 24.0133 123.179 23.8311C123.489 23.6488 123.76 23.4072 123.992 23.1064L124.765 23.708C124.145 24.6605 123.215 25.1367 121.976 25.1367ZM121.818 18.5059C121.308 18.5059 120.88 18.6927 120.533 19.0664C120.187 19.4355 119.973 19.9551 119.891 20.625H123.596V20.5293C123.559 19.8867 123.386 19.39 123.076 19.0391C122.766 18.6836 122.347 18.5059 121.818 18.5059ZM131.313 21.1035V25H130.001V15.0469H133.672C134.761 15.0469 135.613 15.3249 136.229 15.8809C136.848 16.4368 137.158 17.1729 137.158 18.0889C137.158 19.055 136.855 19.8001 136.249 20.3242C135.647 20.8438 134.784 21.1035 133.658 21.1035H131.313ZM131.313 20.0303H133.672C134.374 20.0303 134.911 19.8662 135.285 19.5381C135.659 19.2054 135.846 18.7269 135.846 18.1025C135.846 17.5101 135.659 17.0361 135.285 16.6807C134.911 16.3252 134.399 16.1406 133.747 16.127H131.313V20.0303ZM142.21 18.7383C142.019 18.7064 141.811 18.6904 141.588 18.6904C140.758 18.6904 140.196 19.0436 139.899 19.75V25H138.635V17.6035H139.865L139.886 18.458C140.3 17.7972 140.888 17.4668 141.649 17.4668C141.896 17.4668 142.082 17.4987 142.21 17.5625V18.7383ZM146.312 25.1367C145.309 25.1367 144.493 24.8086 143.864 24.1523C143.235 23.4915 142.921 22.6097 142.921 21.5068V21.2744C142.921 20.5407 143.06 19.8867 143.338 19.3125C143.62 18.7337 144.012 18.2826 144.514 17.959C145.02 17.6309 145.566 17.4668 146.154 17.4668C147.116 17.4668 147.863 17.7835 148.396 18.417C148.93 19.0505 149.196 19.9574 149.196 21.1377V21.6641H144.186C144.204 22.3932 144.416 22.9834 144.821 23.4346C145.231 23.8812 145.751 24.1045 146.38 24.1045C146.826 24.1045 147.205 24.0133 147.515 23.8311C147.825 23.6488 148.096 23.4072 148.328 23.1064L149.101 23.708C148.481 24.6605 147.551 25.1367 146.312 25.1367ZM146.154 18.5059C145.644 18.5059 145.215 18.6927 144.869 19.0664C144.523 19.4355 144.309 19.9551 144.227 20.625H147.932V20.5293C147.895 19.8867 147.722 19.39 147.412 19.0391C147.102 18.6836 146.683 18.5059 146.154 18.5059ZM151.855 17.6035L151.89 18.4238C152.432 17.7858 153.163 17.4668 154.084 17.4668C155.118 17.4668 155.823 17.8633 156.196 18.6562C156.442 18.3008 156.761 18.0137 157.153 17.7949C157.55 17.5762 158.017 17.4668 158.555 17.4668C160.177 17.4668 161.002 18.3258 161.029 20.0439V25H159.765V20.1191C159.765 19.5905 159.644 19.1963 159.402 18.9365C159.161 18.6722 158.755 18.54 158.186 18.54C157.716 18.54 157.326 18.6813 157.017 18.9639C156.707 19.2419 156.527 19.6178 156.477 20.0918V25H155.205V20.1533C155.205 19.0778 154.679 18.54 153.626 18.54C152.797 18.54 152.229 18.8932 151.924 19.5996V25H150.659V17.6035H151.855ZM164.317 25H163.053V17.6035H164.317V25ZM162.95 15.6416C162.95 15.4365 163.012 15.2633 163.135 15.1221C163.262 14.9808 163.449 14.9102 163.695 14.9102C163.941 14.9102 164.128 14.9808 164.256 15.1221C164.383 15.2633 164.447 15.4365 164.447 15.6416C164.447 15.8467 164.383 16.0176 164.256 16.1543C164.128 16.291 163.941 16.3594 163.695 16.3594C163.449 16.3594 163.262 16.291 163.135 16.1543C163.012 16.0176 162.95 15.8467 162.95 15.6416ZM170.914 24.2686C170.422 24.8473 169.7 25.1367 168.747 25.1367C167.959 25.1367 167.357 24.9089 166.942 24.4531C166.532 23.9928 166.325 23.3138 166.32 22.416V17.6035H167.585V22.3818C167.585 23.5029 168.041 24.0635 168.952 24.0635C169.918 24.0635 170.561 23.7035 170.88 22.9834V17.6035H172.145V25H170.941L170.914 24.2686ZM175.262 17.6035L175.296 18.4238C175.838 17.7858 176.57 17.4668 177.49 17.4668C178.525 17.4668 179.229 17.8633 179.603 18.6562C179.849 18.3008 180.168 18.0137 180.56 17.7949C180.956 17.5762 181.423 17.4668 181.961 17.4668C183.583 17.4668 184.408 18.3258 184.436 20.0439V25H183.171V20.1191C183.171 19.5905 183.05 19.1963 182.809 18.9365C182.567 18.6722 182.161 18.54 181.592 18.54C181.122 18.54 180.733 18.6813 180.423 18.9639C180.113 19.2419 179.933 19.6178 179.883 20.0918V25H178.611V20.1533C178.611 19.0778 178.085 18.54 177.032 18.54C176.203 18.54 175.635 18.8932 175.33 19.5996V25H174.065V17.6035H175.262Z" fill="#030303"/>
</svg>
