<svg width="240" height="40" viewBox="0 0 240 40" fill="none" xmlns="http://www.w3.org/2000/svg">
<path d="M36 10C30.48 10 26 14.48 26 20C26 25.52 30.48 30 36 30C41.52 30 46 25.52 46 20C46 14.48 41.52 10 36 10ZM41 21H37V25H35V21H31V19H35V15H37V19H41V21Z" fill="#606060"/>
<path d="M72.1553 25V15.0469H75.4092C76.4893 15.0469 77.3005 15.2702 77.8428 15.7168C78.3896 16.1634 78.6631 16.8242 78.6631 17.6992C78.6631 18.1641 78.5309 18.5765 78.2666 18.9365C78.0023 19.292 77.6423 19.5677 77.1865 19.7637C77.7243 19.9141 78.1481 20.2012 78.458 20.625C78.7725 21.0443 78.9297 21.5456 78.9297 22.1289C78.9297 23.0221 78.6403 23.724 78.0615 24.2344C77.4827 24.7448 76.6647 25 75.6074 25H72.1553ZM73.4678 20.3447V23.9268H75.6348C76.2454 23.9268 76.7262 23.7695 77.0771 23.4551C77.4326 23.1361 77.6104 22.6986 77.6104 22.1426C77.6104 20.944 76.9587 20.3447 75.6553 20.3447H73.4678ZM73.4678 19.292H75.4502C76.0244 19.292 76.4824 19.1484 76.8242 18.8613C77.1706 18.5742 77.3438 18.1846 77.3438 17.6924C77.3438 17.1455 77.1842 16.749 76.8652 16.5029C76.5462 16.2523 76.0609 16.127 75.4092 16.127H73.4678V19.292ZM84.2549 18.7383C84.0635 18.7064 83.8561 18.6904 83.6328 18.6904C82.8034 18.6904 82.2406 19.0436 81.9443 19.75V25H80.6797V17.6035H81.9102L81.9307 18.458C82.3454 17.7972 82.9333 17.4668 83.6943 17.4668C83.9404 17.4668 84.1273 17.4987 84.2549 17.5625V18.7383ZM84.9521 21.2334C84.9521 20.5088 85.0934 19.8571 85.376 19.2783C85.6631 18.6995 86.0596 18.2529 86.5654 17.9385C87.0758 17.624 87.6569 17.4668 88.3086 17.4668C89.3158 17.4668 90.1292 17.8154 90.749 18.5127C91.3734 19.21 91.6855 20.1374 91.6855 21.2949V21.3838C91.6855 22.1038 91.5465 22.751 91.2686 23.3252C90.9951 23.8949 90.6009 24.3392 90.0859 24.6582C89.5755 24.9772 88.9876 25.1367 88.3223 25.1367C87.3197 25.1367 86.5062 24.7881 85.8818 24.0908C85.262 23.3936 84.9521 22.4707 84.9521 21.3223V21.2334ZM86.2236 21.3838C86.2236 22.2041 86.4128 22.8626 86.791 23.3594C87.1738 23.8561 87.6842 24.1045 88.3223 24.1045C88.9648 24.1045 89.4753 23.8538 89.8535 23.3525C90.2318 22.8467 90.4209 22.1403 90.4209 21.2334C90.4209 20.4222 90.2272 19.766 89.8398 19.2646C89.457 18.7588 88.9466 18.5059 88.3086 18.5059C87.6842 18.5059 87.1807 18.7542 86.7979 19.251C86.415 19.7477 86.2236 20.4587 86.2236 21.3838ZM99.8203 23.2568L101.242 17.6035H102.507L100.354 25H99.3281L97.5303 19.3945L95.7803 25H94.7549L92.6084 17.6035H93.8662L95.3223 23.1406L97.0449 17.6035H98.0635L99.8203 23.2568ZM108.105 23.0381C108.105 22.6963 107.976 22.432 107.716 22.2451C107.461 22.0537 107.012 21.8896 106.369 21.7529C105.731 21.6162 105.223 21.4521 104.845 21.2607C104.471 21.0693 104.193 20.8415 104.011 20.5771C103.833 20.3128 103.744 19.9984 103.744 19.6338C103.744 19.0277 103.999 18.515 104.51 18.0957C105.025 17.6764 105.681 17.4668 106.479 17.4668C107.317 17.4668 107.996 17.6833 108.516 18.1162C109.04 18.5492 109.302 19.1029 109.302 19.7773H108.03C108.03 19.431 107.882 19.1325 107.586 18.8818C107.294 18.6312 106.925 18.5059 106.479 18.5059C106.018 18.5059 105.658 18.6061 105.398 18.8066C105.139 19.0072 105.009 19.2692 105.009 19.5928C105.009 19.8981 105.13 20.1283 105.371 20.2832C105.613 20.4382 106.048 20.5863 106.677 20.7275C107.31 20.8688 107.823 21.0374 108.215 21.2334C108.607 21.4294 108.896 21.6663 109.083 21.9443C109.274 22.2178 109.37 22.5527 109.37 22.9492C109.37 23.61 109.106 24.141 108.577 24.542C108.049 24.9385 107.363 25.1367 106.52 25.1367C105.927 25.1367 105.403 25.0319 104.947 24.8223C104.492 24.6126 104.134 24.321 103.874 23.9473C103.619 23.569 103.491 23.1611 103.491 22.7236H104.756C104.779 23.1475 104.947 23.4847 105.262 23.7354C105.581 23.9814 106 24.1045 106.52 24.1045C106.998 24.1045 107.381 24.0088 107.668 23.8174C107.96 23.6214 108.105 23.3617 108.105 23.0381ZM114.087 25.1367C113.084 25.1367 112.269 24.8086 111.64 24.1523C111.011 23.4915 110.696 22.6097 110.696 21.5068V21.2744C110.696 20.5407 110.835 19.8867 111.113 19.3125C111.396 18.7337 111.788 18.2826 112.289 17.959C112.795 17.6309 113.342 17.4668 113.93 17.4668C114.891 17.4668 115.639 17.7835 116.172 18.417C116.705 19.0505 116.972 19.9574 116.972 21.1377V21.6641H111.961C111.979 22.3932 112.191 22.9834 112.597 23.4346C113.007 23.8812 113.526 24.1045 114.155 24.1045C114.602 24.1045 114.98 24.0133 115.29 23.8311C115.6 23.6488 115.871 23.4072 116.104 23.1064L116.876 23.708C116.256 24.6605 115.326 25.1367 114.087 25.1367ZM113.93 18.5059C113.419 18.5059 112.991 18.6927 112.645 19.0664C112.298 19.4355 112.084 19.9551 112.002 20.625H115.707V20.5293C115.671 19.8867 115.497 19.39 115.188 19.0391C114.878 18.6836 114.458 18.5059 113.93 18.5059ZM124.881 24.1045C125.332 24.1045 125.726 23.9678 126.063 23.6943C126.401 23.4209 126.588 23.0791 126.624 22.6689H127.82C127.798 23.0928 127.652 23.4961 127.383 23.8789C127.114 24.2617 126.754 24.5671 126.303 24.7949C125.856 25.0228 125.382 25.1367 124.881 25.1367C123.874 25.1367 123.072 24.8018 122.475 24.1318C121.882 23.4574 121.586 22.5368 121.586 21.3701V21.1582C121.586 20.4382 121.718 19.7979 121.982 19.2373C122.247 18.6768 122.625 18.2415 123.117 17.9316C123.614 17.6217 124.2 17.4668 124.874 17.4668C125.703 17.4668 126.392 17.7152 126.938 18.2119C127.49 18.7087 127.784 19.3535 127.82 20.1465H126.624C126.588 19.668 126.405 19.276 126.077 18.9707C125.754 18.6608 125.353 18.5059 124.874 18.5059C124.231 18.5059 123.732 18.7383 123.377 19.2031C123.026 19.6634 122.851 20.3311 122.851 21.2061V21.4453C122.851 22.2975 123.026 22.9538 123.377 23.4141C123.728 23.8743 124.229 24.1045 124.881 24.1045ZM130.507 18.499C131.067 17.8109 131.797 17.4668 132.694 17.4668C134.257 17.4668 135.046 18.3486 135.06 20.1123V25H133.795V20.1055C133.79 19.5723 133.667 19.1781 133.426 18.9229C133.189 18.6676 132.817 18.54 132.312 18.54C131.901 18.54 131.541 18.6494 131.231 18.8682C130.922 19.0869 130.68 19.374 130.507 19.7295V25H129.242V14.5H130.507V18.499ZM141.52 25C141.447 24.8542 141.387 24.5944 141.342 24.2207C140.754 24.8314 140.052 25.1367 139.236 25.1367C138.507 25.1367 137.908 24.9316 137.438 24.5215C136.974 24.1068 136.741 23.5827 136.741 22.9492C136.741 22.179 137.033 21.582 137.616 21.1582C138.204 20.7298 139.029 20.5156 140.091 20.5156H141.321V19.9346C141.321 19.4925 141.189 19.1416 140.925 18.8818C140.66 18.6175 140.271 18.4854 139.756 18.4854C139.305 18.4854 138.926 18.5993 138.621 18.8271C138.316 19.055 138.163 19.3307 138.163 19.6543H136.892C136.892 19.2852 137.021 18.9297 137.281 18.5879C137.546 18.2415 137.901 17.9681 138.348 17.7676C138.799 17.5671 139.293 17.4668 139.831 17.4668C140.683 17.4668 141.351 17.681 141.834 18.1094C142.317 18.5332 142.568 19.1188 142.586 19.8662V23.2705C142.586 23.9495 142.673 24.4896 142.846 24.8906V25H141.52ZM139.421 24.0361C139.817 24.0361 140.193 23.9336 140.549 23.7285C140.904 23.5234 141.162 23.2568 141.321 22.9287V21.4111H140.33C138.781 21.4111 138.006 21.8646 138.006 22.7715C138.006 23.168 138.138 23.4779 138.402 23.7012C138.667 23.9245 139.006 24.0361 139.421 24.0361ZM145.765 17.6035L145.806 18.5332C146.371 17.8223 147.109 17.4668 148.021 17.4668C149.584 17.4668 150.372 18.3486 150.386 20.1123V25H149.121V20.1055C149.117 19.5723 148.993 19.1781 148.752 18.9229C148.515 18.6676 148.144 18.54 147.638 18.54C147.228 18.54 146.868 18.6494 146.558 18.8682C146.248 19.0869 146.006 19.374 145.833 19.7295V25H144.568V17.6035H145.765ZM153.489 17.6035L153.53 18.5332C154.095 17.8223 154.834 17.4668 155.745 17.4668C157.308 17.4668 158.097 18.3486 158.11 20.1123V25H156.846V20.1055C156.841 19.5723 156.718 19.1781 156.477 18.9229C156.24 18.6676 155.868 18.54 155.362 18.54C154.952 18.54 154.592 18.6494 154.282 18.8682C153.972 19.0869 153.731 19.374 153.558 19.7295V25H152.293V17.6035H153.489ZM163.087 25.1367C162.084 25.1367 161.269 24.8086 160.64 24.1523C160.011 23.4915 159.696 22.6097 159.696 21.5068V21.2744C159.696 20.5407 159.835 19.8867 160.113 19.3125C160.396 18.7337 160.788 18.2826 161.289 17.959C161.795 17.6309 162.342 17.4668 162.93 17.4668C163.891 17.4668 164.639 17.7835 165.172 18.417C165.705 19.0505 165.972 19.9574 165.972 21.1377V21.6641H160.961C160.979 22.3932 161.191 22.9834 161.597 23.4346C162.007 23.8812 162.526 24.1045 163.155 24.1045C163.602 24.1045 163.98 24.0133 164.29 23.8311C164.6 23.6488 164.871 23.4072 165.104 23.1064L165.876 23.708C165.256 24.6605 164.326 25.1367 163.087 25.1367ZM162.93 18.5059C162.419 18.5059 161.991 18.6927 161.645 19.0664C161.298 19.4355 161.084 19.9551 161.002 20.625H164.707V20.5293C164.671 19.8867 164.497 19.39 164.188 19.0391C163.878 18.6836 163.458 18.5059 162.93 18.5059ZM168.815 25H167.551V14.5H168.815V25ZM175.152 23.0381C175.152 22.6963 175.022 22.432 174.763 22.2451C174.507 22.0537 174.059 21.8896 173.416 21.7529C172.778 21.6162 172.27 21.4521 171.892 21.2607C171.518 21.0693 171.24 20.8415 171.058 20.5771C170.88 20.3128 170.791 19.9984 170.791 19.6338C170.791 19.0277 171.046 18.515 171.557 18.0957C172.072 17.6764 172.728 17.4668 173.525 17.4668C174.364 17.4668 175.043 17.6833 175.562 18.1162C176.087 18.5492 176.349 19.1029 176.349 19.7773H175.077C175.077 19.431 174.929 19.1325 174.633 18.8818C174.341 18.6312 173.972 18.5059 173.525 18.5059C173.065 18.5059 172.705 18.6061 172.445 18.8066C172.186 19.0072 172.056 19.2692 172.056 19.5928C172.056 19.8981 172.176 20.1283 172.418 20.2832C172.66 20.4382 173.095 20.5863 173.724 20.7275C174.357 20.8688 174.87 21.0374 175.262 21.2334C175.654 21.4294 175.943 21.6663 176.13 21.9443C176.321 22.2178 176.417 22.5527 176.417 22.9492C176.417 23.61 176.153 24.141 175.624 24.542C175.095 24.9385 174.41 25.1367 173.566 25.1367C172.974 25.1367 172.45 25.0319 171.994 24.8223C171.538 24.6126 171.181 24.321 170.921 23.9473C170.666 23.569 170.538 23.1611 170.538 22.7236H171.803C171.826 23.1475 171.994 23.4847 172.309 23.7354C172.628 23.9814 173.047 24.1045 173.566 24.1045C174.045 24.1045 174.428 24.0088 174.715 23.8174C175.007 23.6214 175.152 23.3617 175.152 23.0381Z" fill="#030303"/>
</svg>
