<svg width="240" height="40" viewBox="0 0 240 40" fill="none" xmlns="http://www.w3.org/2000/svg">
<path fill-rule="evenodd" clip-rule="evenodd" d="M46 21V16L41 13L36 16L31 13L26 16V21L36 27L46 21ZM33 19H31V21H30V19H28V18H30V16H31V18H33V19ZM39 21C38.45 21 38 20.55 38 20C38 19.45 38.45 19 39 19C39.55 19 40 19.45 40 20C40 20.55 39.55 21 39 21ZM42 19C41.45 19 41 18.55 41 18C41 17.45 41.45 17 42 17C42.55 17 43 17.45 43 18C43 18.55 42.55 19 42 19Z" fill="#606060"/>
<path d="M79.5039 23.6943C79.1667 24.1774 78.695 24.5397 78.0889 24.7812C77.4873 25.0182 76.7855 25.1367 75.9834 25.1367C75.1722 25.1367 74.4521 24.9476 73.8232 24.5693C73.1943 24.1865 72.7067 23.6442 72.3604 22.9424C72.0186 22.2406 71.8431 21.4271 71.834 20.502V19.6338C71.834 18.1344 72.1826 16.9723 72.8799 16.1475C73.5817 15.3226 74.5661 14.9102 75.833 14.9102C76.8721 14.9102 77.7083 15.1768 78.3418 15.71C78.9753 16.2386 79.3626 16.9906 79.5039 17.9658H78.1914C77.9453 16.6488 77.1615 15.9902 75.8398 15.9902C74.9603 15.9902 74.2926 16.3001 73.8369 16.9199C73.3857 17.5352 73.1579 18.4284 73.1533 19.5996V20.4131C73.1533 21.5296 73.4085 22.4183 73.9189 23.0791C74.4294 23.7354 75.1198 24.0635 75.9902 24.0635C76.4824 24.0635 76.9131 24.0088 77.2822 23.8994C77.6514 23.79 77.9567 23.6055 78.1982 23.3457V21.1104H75.8945V20.0439H79.5039V23.6943ZM86.0664 25C85.9935 24.8542 85.9342 24.5944 85.8887 24.2207C85.3008 24.8314 84.599 25.1367 83.7832 25.1367C83.054 25.1367 82.4548 24.9316 81.9854 24.5215C81.5205 24.1068 81.2881 23.5827 81.2881 22.9492C81.2881 22.179 81.5798 21.582 82.1631 21.1582C82.751 20.7298 83.5758 20.5156 84.6377 20.5156H85.8682V19.9346C85.8682 19.4925 85.736 19.1416 85.4717 18.8818C85.2074 18.6175 84.8177 18.4854 84.3027 18.4854C83.8516 18.4854 83.4733 18.5993 83.168 18.8271C82.8626 19.055 82.71 19.3307 82.71 19.6543H81.4385C81.4385 19.2852 81.5684 18.9297 81.8281 18.5879C82.0924 18.2415 82.4479 17.9681 82.8945 17.7676C83.3457 17.5671 83.8402 17.4668 84.3779 17.4668C85.2301 17.4668 85.8978 17.681 86.3809 18.1094C86.8639 18.5332 87.1146 19.1188 87.1328 19.8662V23.2705C87.1328 23.9495 87.2194 24.4896 87.3926 24.8906V25H86.0664ZM83.9678 24.0361C84.3643 24.0361 84.7402 23.9336 85.0957 23.7285C85.4512 23.5234 85.7087 23.2568 85.8682 22.9287V21.4111H84.877C83.3275 21.4111 82.5527 21.8646 82.5527 22.7715C82.5527 23.168 82.6849 23.4779 82.9492 23.7012C83.2135 23.9245 83.5531 24.0361 83.9678 24.0361ZM90.3047 17.6035L90.3389 18.4238C90.8812 17.7858 91.6126 17.4668 92.5332 17.4668C93.5677 17.4668 94.2718 17.8633 94.6455 18.6562C94.8916 18.3008 95.2106 18.0137 95.6025 17.7949C95.999 17.5762 96.4661 17.4668 97.0039 17.4668C98.6263 17.4668 99.4512 18.3258 99.4785 20.0439V25H98.2139V20.1191C98.2139 19.5905 98.0931 19.1963 97.8516 18.9365C97.61 18.6722 97.2044 18.54 96.6348 18.54C96.1654 18.54 95.7757 18.6813 95.4658 18.9639C95.1559 19.2419 94.9759 19.6178 94.9258 20.0918V25H93.6543V20.1533C93.6543 19.0778 93.1279 18.54 92.0752 18.54C91.2458 18.54 90.6784 18.8932 90.373 19.5996V25H89.1084V17.6035H90.3047ZM102.767 25H101.502V17.6035H102.767V25ZM101.399 15.6416C101.399 15.4365 101.461 15.2633 101.584 15.1221C101.712 14.9808 101.898 14.9102 102.145 14.9102C102.391 14.9102 102.577 14.9808 102.705 15.1221C102.833 15.2633 102.896 15.4365 102.896 15.6416C102.896 15.8467 102.833 16.0176 102.705 16.1543C102.577 16.291 102.391 16.3594 102.145 16.3594C101.898 16.3594 101.712 16.291 101.584 16.1543C101.461 16.0176 101.399 15.8467 101.399 15.6416ZM105.993 17.6035L106.034 18.5332C106.599 17.8223 107.338 17.4668 108.249 17.4668C109.812 17.4668 110.601 18.3486 110.614 20.1123V25H109.35V20.1055C109.345 19.5723 109.222 19.1781 108.98 18.9229C108.743 18.6676 108.372 18.54 107.866 18.54C107.456 18.54 107.096 18.6494 106.786 18.8682C106.476 19.0869 106.235 19.374 106.062 19.7295V25H104.797V17.6035H105.993ZM112.221 21.2402C112.221 20.0872 112.487 19.1712 113.021 18.4922C113.554 17.8086 114.26 17.4668 115.14 17.4668C116.042 17.4668 116.746 17.7858 117.252 18.4238L117.313 17.6035H118.469V24.8223C118.469 25.7793 118.184 26.5335 117.614 27.085C117.049 27.6364 116.288 27.9121 115.331 27.9121C114.798 27.9121 114.276 27.7982 113.766 27.5703C113.255 27.3424 112.866 27.0303 112.597 26.6338L113.253 25.875C113.795 26.5449 114.458 26.8799 115.242 26.8799C115.857 26.8799 116.336 26.7067 116.678 26.3604C117.024 26.014 117.197 25.5264 117.197 24.8975V24.2617C116.691 24.8451 116.001 25.1367 115.126 25.1367C114.26 25.1367 113.558 24.7881 113.021 24.0908C112.487 23.3936 112.221 22.4434 112.221 21.2402ZM113.492 21.3838C113.492 22.2178 113.663 22.874 114.005 23.3525C114.347 23.8265 114.825 24.0635 115.44 24.0635C116.238 24.0635 116.824 23.7012 117.197 22.9766V19.5996C116.81 18.8932 116.229 18.54 115.454 18.54C114.839 18.54 114.358 18.7793 114.012 19.2578C113.665 19.7363 113.492 20.445 113.492 21.3838Z" fill="#030303"/>
</svg>
