<svg width="240" height="40" viewBox="0 0 240 40" fill="none" xmlns="http://www.w3.org/2000/svg">
<path d="M36.396 12C31.6736 12 27.8542 15.8121 27.8542 20.5H25L28.7052 24.1782L28.7468 24.3121L32.5869 20.5H29.7535C29.7535 16.8527 32.7322 13.8855 36.4167 13.8855C40.0908 13.8855 43.0592 16.8527 43.0592 20.5C43.0592 24.1473 40.0908 27.1145 36.4167 27.1145C34.5693 27.1145 32.9087 26.3624 31.7047 25.157L30.3555 26.4964C31.9123 28.0418 34.04 29 36.4063 29C41.1598 29 45 25.1879 45 20.5C45 15.8018 41.1598 12 36.4271 12H36.396ZM35.4619 16.7188V21.4582L39.5304 23.8279L40.2154 22.6945L36.8941 20.737V16.7188H35.4619Z" fill="#606060"/>
<path d="M79.8047 25H78.4854V20.3994H73.4678V25H72.1553V15.0469H73.4678V19.3262H78.4854V15.0469H79.8047V25ZM83.3115 25H82.0469V17.6035H83.3115V25ZM81.9443 15.6416C81.9443 15.4365 82.0059 15.2633 82.1289 15.1221C82.2565 14.9808 82.4434 14.9102 82.6895 14.9102C82.9355 14.9102 83.1224 14.9808 83.25 15.1221C83.3776 15.2633 83.4414 15.4365 83.4414 15.6416C83.4414 15.8467 83.3776 16.0176 83.25 16.1543C83.1224 16.291 82.9355 16.3594 82.6895 16.3594C82.4434 16.3594 82.2565 16.291 82.1289 16.1543C82.0059 16.0176 81.9443 15.8467 81.9443 15.6416ZM89.6484 23.0381C89.6484 22.6963 89.5186 22.432 89.2588 22.2451C89.0036 22.0537 88.5547 21.8896 87.9121 21.7529C87.2741 21.6162 86.766 21.4521 86.3877 21.2607C86.014 21.0693 85.736 20.8415 85.5537 20.5771C85.376 20.3128 85.2871 19.9984 85.2871 19.6338C85.2871 19.0277 85.5423 18.515 86.0527 18.0957C86.5677 17.6764 87.224 17.4668 88.0215 17.4668C88.86 17.4668 89.5391 17.6833 90.0586 18.1162C90.5827 18.5492 90.8447 19.1029 90.8447 19.7773H89.5732C89.5732 19.431 89.4251 19.1325 89.1289 18.8818C88.8372 18.6312 88.4681 18.5059 88.0215 18.5059C87.5612 18.5059 87.2012 18.6061 86.9414 18.8066C86.6816 19.0072 86.5518 19.2692 86.5518 19.5928C86.5518 19.8981 86.6725 20.1283 86.9141 20.2832C87.1556 20.4382 87.5908 20.5863 88.2197 20.7275C88.8532 20.8688 89.3659 21.0374 89.7578 21.2334C90.1497 21.4294 90.4391 21.6663 90.626 21.9443C90.8174 22.2178 90.9131 22.5527 90.9131 22.9492C90.9131 23.61 90.6488 24.141 90.1201 24.542C89.5915 24.9385 88.9056 25.1367 88.0625 25.1367C87.4701 25.1367 86.946 25.0319 86.4902 24.8223C86.0345 24.6126 85.6768 24.321 85.417 23.9473C85.1618 23.569 85.0342 23.1611 85.0342 22.7236H86.2988C86.3216 23.1475 86.4902 23.4847 86.8047 23.7354C87.1237 23.9814 87.543 24.1045 88.0625 24.1045C88.541 24.1045 88.9238 24.0088 89.2109 23.8174C89.5026 23.6214 89.6484 23.3617 89.6484 23.0381ZM94.2764 15.8125V17.6035H95.6572V18.5811H94.2764V23.168C94.2764 23.4642 94.3379 23.6875 94.4609 23.8379C94.584 23.9837 94.7936 24.0566 95.0898 24.0566C95.2357 24.0566 95.4362 24.0293 95.6914 23.9746V25C95.3587 25.0911 95.0352 25.1367 94.7207 25.1367C94.1556 25.1367 93.7295 24.9658 93.4424 24.624C93.1553 24.2822 93.0117 23.7969 93.0117 23.168V18.5811H91.665V17.6035H93.0117V15.8125H94.2764ZM96.6689 21.2334C96.6689 20.5088 96.8102 19.8571 97.0928 19.2783C97.3799 18.6995 97.7764 18.2529 98.2822 17.9385C98.7926 17.624 99.3737 17.4668 100.025 17.4668C101.033 17.4668 101.846 17.8154 102.466 18.5127C103.09 19.21 103.402 20.1374 103.402 21.2949V21.3838C103.402 22.1038 103.263 22.751 102.985 23.3252C102.712 23.8949 102.318 24.3392 101.803 24.6582C101.292 24.9772 100.704 25.1367 100.039 25.1367C99.0365 25.1367 98.223 24.7881 97.5986 24.0908C96.9788 23.3936 96.6689 22.4707 96.6689 21.3223V21.2334ZM97.9404 21.3838C97.9404 22.2041 98.1296 22.8626 98.5078 23.3594C98.8906 23.8561 99.401 24.1045 100.039 24.1045C100.682 24.1045 101.192 23.8538 101.57 23.3525C101.949 22.8467 102.138 22.1403 102.138 21.2334C102.138 20.4222 101.944 19.766 101.557 19.2646C101.174 18.7588 100.663 18.5059 100.025 18.5059C99.401 18.5059 98.8975 18.7542 98.5146 19.251C98.1318 19.7477 97.9404 20.4587 97.9404 21.3838ZM108.563 18.7383C108.372 18.7064 108.165 18.6904 107.941 18.6904C107.112 18.6904 106.549 19.0436 106.253 19.75V25H104.988V17.6035H106.219L106.239 18.458C106.654 17.7972 107.242 17.4668 108.003 17.4668C108.249 17.4668 108.436 17.4987 108.563 17.5625V18.7383ZM112.275 23.1475L113.998 17.6035H115.352L112.378 26.1416C111.918 27.3721 111.186 27.9873 110.184 27.9873L109.944 27.9668L109.473 27.8779V26.8525L109.814 26.8799C110.243 26.8799 110.576 26.7933 110.812 26.6201C111.054 26.4469 111.252 26.1302 111.407 25.6699L111.688 24.918L109.049 17.6035H110.43L112.275 23.1475Z" fill="#030303"/>
</svg>
