<svg width="240" height="40" viewBox="0 0 240 40" fill="none" xmlns="http://www.w3.org/2000/svg">
<path d="M34 28V22H38V28H43V20H46L36 11L26 20H29V28" fill="#606060"/>
<path d="M79.8047 25H78.4854V20.3994H73.4678V25H72.1553V15.0469H73.4678V19.3262H78.4854V15.0469H79.8047V25ZM81.6025 21.2334C81.6025 20.5088 81.7438 19.8571 82.0264 19.2783C82.3135 18.6995 82.71 18.2529 83.2158 17.9385C83.7262 17.624 84.3073 17.4668 84.959 17.4668C85.9661 17.4668 86.7796 17.8154 87.3994 18.5127C88.0238 19.21 88.3359 20.1374 88.3359 21.2949V21.3838C88.3359 22.1038 88.1969 22.751 87.9189 23.3252C87.6455 23.8949 87.2513 24.3392 86.7363 24.6582C86.2259 24.9772 85.638 25.1367 84.9727 25.1367C83.9701 25.1367 83.1566 24.7881 82.5322 24.0908C81.9124 23.3936 81.6025 22.4707 81.6025 21.3223V21.2334ZM82.874 21.3838C82.874 22.2041 83.0632 22.8626 83.4414 23.3594C83.8242 23.8561 84.3346 24.1045 84.9727 24.1045C85.6152 24.1045 86.1257 23.8538 86.5039 23.3525C86.8822 22.8467 87.0713 22.1403 87.0713 21.2334C87.0713 20.4222 86.8776 19.766 86.4902 19.2646C86.1074 18.7588 85.597 18.5059 84.959 18.5059C84.3346 18.5059 83.8311 18.7542 83.4482 19.251C83.0654 19.7477 82.874 20.4587 82.874 21.3838ZM91.1113 17.6035L91.1455 18.4238C91.6878 17.7858 92.4193 17.4668 93.3398 17.4668C94.3743 17.4668 95.0785 17.8633 95.4521 18.6562C95.6982 18.3008 96.0173 18.0137 96.4092 17.7949C96.8057 17.5762 97.2728 17.4668 97.8105 17.4668C99.4329 17.4668 100.258 18.3258 100.285 20.0439V25H99.0205V20.1191C99.0205 19.5905 98.8997 19.1963 98.6582 18.9365C98.4167 18.6722 98.0111 18.54 97.4414 18.54C96.972 18.54 96.5824 18.6813 96.2725 18.9639C95.9626 19.2419 95.7826 19.6178 95.7324 20.0918V25H94.4609V20.1533C94.4609 19.0778 93.9346 18.54 92.8818 18.54C92.0524 18.54 91.485 18.8932 91.1797 19.5996V25H89.915V17.6035H91.1113ZM105.269 25.1367C104.266 25.1367 103.45 24.8086 102.821 24.1523C102.192 23.4915 101.878 22.6097 101.878 21.5068V21.2744C101.878 20.5407 102.017 19.8867 102.295 19.3125C102.577 18.7337 102.969 18.2826 103.471 17.959C103.977 17.6309 104.523 17.4668 105.111 17.4668C106.073 17.4668 106.82 17.7835 107.354 18.417C107.887 19.0505 108.153 19.9574 108.153 21.1377V21.6641H103.143C103.161 22.3932 103.373 22.9834 103.778 23.4346C104.188 23.8812 104.708 24.1045 105.337 24.1045C105.784 24.1045 106.162 24.0133 106.472 23.8311C106.782 23.6488 107.053 23.4072 107.285 23.1064L108.058 23.708C107.438 24.6605 106.508 25.1367 105.269 25.1367ZM105.111 18.5059C104.601 18.5059 104.173 18.6927 103.826 19.0664C103.48 19.4355 103.266 19.9551 103.184 20.625H106.889V20.5293C106.852 19.8867 106.679 19.39 106.369 19.0391C106.059 18.6836 105.64 18.5059 105.111 18.5059Z" fill="#030303"/>
</svg>
