<svg width="240" height="40" viewBox="0 0 240 40" fill="none" xmlns="http://www.w3.org/2000/svg">
<path d="M27.75 26.75H30.75V17.75H27.75V26.75ZM44.25 18.5C44.25 17.67 43.57 17 42.75 17H38.02L38.72 13.57L38.75 13.33C38.75 13.03 38.62 12.73 38.42 12.53L37.62 11.75L32.7 16.7C32.4 16.96 32.25 17.34 32.25 17.75V25.25C32.25 26.07 32.92 26.75 33.75 26.75H40.5C41.12 26.75 41.65 26.37 41.88 25.85L44.15 20.55C44.21 20.37 44.25 20.19 44.25 20V18.5Z" fill="#606060"/>
<path d="M73.4746 23.9268H78.1914V25H72.1553V15.0469H73.4746V23.9268ZM80.8643 25H79.5996V17.6035H80.8643V25ZM79.4971 15.6416C79.4971 15.4365 79.5586 15.2633 79.6816 15.1221C79.8092 14.9808 79.9961 14.9102 80.2422 14.9102C80.4883 14.9102 80.6751 14.9808 80.8027 15.1221C80.9303 15.2633 80.9941 15.4365 80.9941 15.6416C80.9941 15.8467 80.9303 16.0176 80.8027 16.1543C80.6751 16.291 80.4883 16.3594 80.2422 16.3594C79.9961 16.3594 79.8092 16.291 79.6816 16.1543C79.5586 16.0176 79.4971 15.8467 79.4971 15.6416ZM84.959 21.5752L84.166 22.4023V25H82.9014V14.5H84.166V20.8506L84.8428 20.0371L87.1465 17.6035H88.6846L85.8066 20.6934L89.0195 25H87.5361L84.959 21.5752ZM92.9229 25.1367C91.9202 25.1367 91.1045 24.8086 90.4756 24.1523C89.8467 23.4915 89.5322 22.6097 89.5322 21.5068V21.2744C89.5322 20.5407 89.6712 19.8867 89.9492 19.3125C90.2318 18.7337 90.6237 18.2826 91.125 17.959C91.6309 17.6309 92.1777 17.4668 92.7656 17.4668C93.7272 17.4668 94.4746 17.7835 95.0078 18.417C95.541 19.0505 95.8076 19.9574 95.8076 21.1377V21.6641H90.7969C90.8151 22.3932 91.027 22.9834 91.4326 23.4346C91.8428 23.8812 92.3623 24.1045 92.9912 24.1045C93.4378 24.1045 93.8161 24.0133 94.126 23.8311C94.4359 23.6488 94.707 23.4072 94.9395 23.1064L95.7119 23.708C95.0921 24.6605 94.1624 25.1367 92.9229 25.1367ZM92.7656 18.5059C92.2552 18.5059 91.8268 18.6927 91.4805 19.0664C91.1341 19.4355 90.9199 19.9551 90.8379 20.625H94.543V20.5293C94.5065 19.8867 94.3333 19.39 94.0234 19.0391C93.7135 18.6836 93.2943 18.5059 92.7656 18.5059ZM96.9697 21.2402C96.9697 20.1055 97.2386 19.194 97.7764 18.5059C98.3141 17.8132 99.0182 17.4668 99.8887 17.4668C100.755 17.4668 101.44 17.763 101.946 18.3555V14.5H103.211V25H102.049L101.987 24.207C101.481 24.8268 100.777 25.1367 99.875 25.1367C99.0182 25.1367 98.3187 24.7858 97.7764 24.084C97.2386 23.3822 96.9697 22.4661 96.9697 21.3359V21.2402ZM98.2344 21.3838C98.2344 22.2223 98.4076 22.8786 98.7539 23.3525C99.1003 23.8265 99.5788 24.0635 100.189 24.0635C100.992 24.0635 101.577 23.7035 101.946 22.9834V19.5859C101.568 18.8887 100.987 18.54 100.203 18.54C99.5833 18.54 99.1003 18.7793 98.7539 19.2578C98.4076 19.7363 98.2344 20.445 98.2344 21.3838ZM111.093 23.2842L112.925 17.6035H114.217L111.564 25H110.601L107.921 17.6035H109.213L111.093 23.2842ZM116.808 25H115.543V17.6035H116.808V25ZM115.44 15.6416C115.44 15.4365 115.502 15.2633 115.625 15.1221C115.753 14.9808 115.939 14.9102 116.186 14.9102C116.432 14.9102 116.618 14.9808 116.746 15.1221C116.874 15.2633 116.938 15.4365 116.938 15.6416C116.938 15.8467 116.874 16.0176 116.746 16.1543C116.618 16.291 116.432 16.3594 116.186 16.3594C115.939 16.3594 115.753 16.291 115.625 16.1543C115.502 16.0176 115.44 15.8467 115.44 15.6416ZM118.53 21.2402C118.53 20.1055 118.799 19.194 119.337 18.5059C119.875 17.8132 120.579 17.4668 121.449 17.4668C122.315 17.4668 123.001 17.763 123.507 18.3555V14.5H124.771V25H123.609L123.548 24.207C123.042 24.8268 122.338 25.1367 121.436 25.1367C120.579 25.1367 119.879 24.7858 119.337 24.084C118.799 23.3822 118.53 22.4661 118.53 21.3359V21.2402ZM119.795 21.3838C119.795 22.2223 119.968 22.8786 120.314 23.3525C120.661 23.8265 121.139 24.0635 121.75 24.0635C122.552 24.0635 123.138 23.7035 123.507 22.9834V19.5859C123.129 18.8887 122.548 18.54 121.764 18.54C121.144 18.54 120.661 18.7793 120.314 19.2578C119.968 19.7363 119.795 20.445 119.795 21.3838ZM129.81 25.1367C128.807 25.1367 127.991 24.8086 127.362 24.1523C126.733 23.4915 126.419 22.6097 126.419 21.5068V21.2744C126.419 20.5407 126.558 19.8867 126.836 19.3125C127.118 18.7337 127.51 18.2826 128.012 17.959C128.518 17.6309 129.064 17.4668 129.652 17.4668C130.614 17.4668 131.361 17.7835 131.895 18.417C132.428 19.0505 132.694 19.9574 132.694 21.1377V21.6641H127.684C127.702 22.3932 127.914 22.9834 128.319 23.4346C128.729 23.8812 129.249 24.1045 129.878 24.1045C130.325 24.1045 130.703 24.0133 131.013 23.8311C131.323 23.6488 131.594 23.4072 131.826 23.1064L132.599 23.708C131.979 24.6605 131.049 25.1367 129.81 25.1367ZM129.652 18.5059C129.142 18.5059 128.714 18.6927 128.367 19.0664C128.021 19.4355 127.807 19.9551 127.725 20.625H131.43V20.5293C131.393 19.8867 131.22 19.39 130.91 19.0391C130.6 18.6836 130.181 18.5059 129.652 18.5059ZM133.829 21.2334C133.829 20.5088 133.97 19.8571 134.253 19.2783C134.54 18.6995 134.937 18.2529 135.442 17.9385C135.953 17.624 136.534 17.4668 137.186 17.4668C138.193 17.4668 139.006 17.8154 139.626 18.5127C140.25 19.21 140.562 20.1374 140.562 21.2949V21.3838C140.562 22.1038 140.424 22.751 140.146 23.3252C139.872 23.8949 139.478 24.3392 138.963 24.6582C138.452 24.9772 137.865 25.1367 137.199 25.1367C136.197 25.1367 135.383 24.7881 134.759 24.0908C134.139 23.3936 133.829 22.4707 133.829 21.3223V21.2334ZM135.101 21.3838C135.101 22.2041 135.29 22.8626 135.668 23.3594C136.051 23.8561 136.561 24.1045 137.199 24.1045C137.842 24.1045 138.352 23.8538 138.73 23.3525C139.109 22.8467 139.298 22.1403 139.298 21.2334C139.298 20.4222 139.104 19.766 138.717 19.2646C138.334 18.7588 137.824 18.5059 137.186 18.5059C136.561 18.5059 136.058 18.7542 135.675 19.251C135.292 19.7477 135.101 20.4587 135.101 21.3838ZM146.455 23.0381C146.455 22.6963 146.325 22.432 146.065 22.2451C145.81 22.0537 145.361 21.8896 144.719 21.7529C144.081 21.6162 143.573 21.4521 143.194 21.2607C142.821 21.0693 142.543 20.8415 142.36 20.5771C142.183 20.3128 142.094 19.9984 142.094 19.6338C142.094 19.0277 142.349 18.515 142.859 18.0957C143.374 17.6764 144.031 17.4668 144.828 17.4668C145.667 17.4668 146.346 17.6833 146.865 18.1162C147.389 18.5492 147.651 19.1029 147.651 19.7773H146.38C146.38 19.431 146.232 19.1325 145.936 18.8818C145.644 18.6312 145.275 18.5059 144.828 18.5059C144.368 18.5059 144.008 18.6061 143.748 18.8066C143.488 19.0072 143.358 19.2692 143.358 19.5928C143.358 19.8981 143.479 20.1283 143.721 20.2832C143.962 20.4382 144.397 20.5863 145.026 20.7275C145.66 20.8688 146.173 21.0374 146.564 21.2334C146.956 21.4294 147.246 21.6663 147.433 21.9443C147.624 22.2178 147.72 22.5527 147.72 22.9492C147.72 23.61 147.455 24.141 146.927 24.542C146.398 24.9385 145.712 25.1367 144.869 25.1367C144.277 25.1367 143.753 25.0319 143.297 24.8223C142.841 24.6126 142.483 24.321 142.224 23.9473C141.968 23.569 141.841 23.1611 141.841 22.7236H143.105C143.128 23.1475 143.297 23.4847 143.611 23.7354C143.93 23.9814 144.35 24.1045 144.869 24.1045C145.348 24.1045 145.73 24.0088 146.018 23.8174C146.309 23.6214 146.455 23.3617 146.455 23.0381Z" fill="#030303"/>
</svg>
