<svg width="240" height="40" viewBox="0 0 240 40" fill="none" xmlns="http://www.w3.org/2000/svg">
<path d="M44 10H28C26.9 10 26.01 10.9 26.01 12L26 30L30 26H44C45.1 26 46 25.1 46 24V12C46 10.9 45.1 10 44 10ZM37 22H35V20H37V22ZM37 18H35V14H37V18Z" fill="#606060"/>
<path d="M75.0879 20.5635C73.9622 20.2399 73.1419 19.8434 72.627 19.374C72.1165 18.9001 71.8613 18.3167 71.8613 17.624C71.8613 16.8402 72.1735 16.193 72.7979 15.6826C73.4268 15.1676 74.2425 14.9102 75.2451 14.9102C75.9287 14.9102 76.5371 15.0423 77.0703 15.3066C77.6081 15.571 78.0228 15.9355 78.3145 16.4004C78.6107 16.8652 78.7588 17.3734 78.7588 17.9248H77.4395C77.4395 17.3232 77.248 16.8516 76.8652 16.5098C76.4824 16.1634 75.9424 15.9902 75.2451 15.9902C74.598 15.9902 74.0921 16.1338 73.7275 16.4209C73.3675 16.7035 73.1875 17.0977 73.1875 17.6035C73.1875 18.0091 73.3584 18.3532 73.7002 18.6357C74.0465 18.9137 74.6322 19.1689 75.457 19.4014C76.2865 19.6338 76.9336 19.8913 77.3984 20.1738C77.8678 20.4518 78.2142 20.7777 78.4375 21.1514C78.6654 21.5251 78.7793 21.9648 78.7793 22.4707C78.7793 23.2773 78.4648 23.9245 77.8359 24.4121C77.207 24.8952 76.3662 25.1367 75.3135 25.1367C74.6299 25.1367 73.9919 25.0068 73.3994 24.7471C72.807 24.4827 72.349 24.1227 72.0254 23.667C71.7064 23.2113 71.5469 22.694 71.5469 22.1152H72.8662C72.8662 22.7168 73.0872 23.193 73.5293 23.5439C73.9759 23.8903 74.5706 24.0635 75.3135 24.0635C76.0062 24.0635 76.5371 23.9222 76.9062 23.6396C77.2754 23.3571 77.46 22.972 77.46 22.4844C77.46 21.9967 77.2891 21.6208 76.9473 21.3564C76.6055 21.0876 75.9857 20.8232 75.0879 20.5635ZM83.3389 25.1367C82.3363 25.1367 81.5205 24.8086 80.8916 24.1523C80.2627 23.4915 79.9482 22.6097 79.9482 21.5068V21.2744C79.9482 20.5407 80.0872 19.8867 80.3652 19.3125C80.6478 18.7337 81.0397 18.2826 81.541 17.959C82.0469 17.6309 82.5938 17.4668 83.1816 17.4668C84.1432 17.4668 84.8906 17.7835 85.4238 18.417C85.957 19.0505 86.2236 19.9574 86.2236 21.1377V21.6641H81.2129C81.2311 22.3932 81.443 22.9834 81.8486 23.4346C82.2588 23.8812 82.7783 24.1045 83.4072 24.1045C83.8538 24.1045 84.2321 24.0133 84.542 23.8311C84.8519 23.6488 85.123 23.4072 85.3555 23.1064L86.1279 23.708C85.5081 24.6605 84.5785 25.1367 83.3389 25.1367ZM83.1816 18.5059C82.6712 18.5059 82.2428 18.6927 81.8965 19.0664C81.5501 19.4355 81.3359 19.9551 81.2539 20.625H84.959V20.5293C84.9225 19.8867 84.7493 19.39 84.4395 19.0391C84.1296 18.6836 83.7103 18.5059 83.1816 18.5059ZM88.8896 17.6035L88.9307 18.5332C89.4958 17.8223 90.234 17.4668 91.1455 17.4668C92.7087 17.4668 93.4971 18.3486 93.5107 20.1123V25H92.2461V20.1055C92.2415 19.5723 92.1185 19.1781 91.877 18.9229C91.64 18.6676 91.2686 18.54 90.7627 18.54C90.3525 18.54 89.9925 18.6494 89.6826 18.8682C89.3727 19.0869 89.1312 19.374 88.958 19.7295V25H87.6934V17.6035H88.8896ZM95.1104 21.2402C95.1104 20.1055 95.3792 19.194 95.917 18.5059C96.4548 17.8132 97.1589 17.4668 98.0293 17.4668C98.8952 17.4668 99.5811 17.763 100.087 18.3555V14.5H101.352V25H100.189L100.128 24.207C99.6221 24.8268 98.918 25.1367 98.0156 25.1367C97.1589 25.1367 96.4593 24.7858 95.917 24.084C95.3792 23.3822 95.1104 22.4661 95.1104 21.3359V21.2402ZM96.375 21.3838C96.375 22.2223 96.5482 22.8786 96.8945 23.3525C97.2409 23.8265 97.7194 24.0635 98.3301 24.0635C99.1322 24.0635 99.7178 23.7035 100.087 22.9834V19.5859C99.7087 18.8887 99.1276 18.54 98.3438 18.54C97.724 18.54 97.2409 18.7793 96.8945 19.2578C96.5482 19.7363 96.375 20.445 96.375 21.3838ZM107.415 25V18.5811H106.246V17.6035H107.415V16.8447C107.415 16.0518 107.627 15.4388 108.051 15.0059C108.475 14.5729 109.074 14.3564 109.849 14.3564C110.14 14.3564 110.43 14.3952 110.717 14.4727L110.648 15.498C110.434 15.457 110.206 15.4365 109.965 15.4365C109.555 15.4365 109.238 15.5573 109.015 15.7988C108.791 16.0358 108.68 16.3776 108.68 16.8242V17.6035H110.259V18.5811H108.68V25H107.415ZM114.565 25.1367C113.563 25.1367 112.747 24.8086 112.118 24.1523C111.489 23.4915 111.175 22.6097 111.175 21.5068V21.2744C111.175 20.5407 111.314 19.8867 111.592 19.3125C111.874 18.7337 112.266 18.2826 112.768 17.959C113.273 17.6309 113.82 17.4668 114.408 17.4668C115.37 17.4668 116.117 17.7835 116.65 18.417C117.184 19.0505 117.45 19.9574 117.45 21.1377V21.6641H112.439C112.458 22.3932 112.67 22.9834 113.075 23.4346C113.485 23.8812 114.005 24.1045 114.634 24.1045C115.08 24.1045 115.459 24.0133 115.769 23.8311C116.078 23.6488 116.35 23.4072 116.582 23.1064L117.354 23.708C116.735 24.6605 115.805 25.1367 114.565 25.1367ZM114.408 18.5059C113.898 18.5059 113.469 18.6927 113.123 19.0664C112.777 19.4355 112.562 19.9551 112.48 20.625H116.186V20.5293C116.149 19.8867 115.976 19.39 115.666 19.0391C115.356 18.6836 114.937 18.5059 114.408 18.5059ZM121.989 25.1367C120.987 25.1367 120.171 24.8086 119.542 24.1523C118.913 23.4915 118.599 22.6097 118.599 21.5068V21.2744C118.599 20.5407 118.738 19.8867 119.016 19.3125C119.298 18.7337 119.69 18.2826 120.191 17.959C120.697 17.6309 121.244 17.4668 121.832 17.4668C122.794 17.4668 123.541 17.7835 124.074 18.417C124.607 19.0505 124.874 19.9574 124.874 21.1377V21.6641H119.863C119.882 22.3932 120.093 22.9834 120.499 23.4346C120.909 23.8812 121.429 24.1045 122.058 24.1045C122.504 24.1045 122.882 24.0133 123.192 23.8311C123.502 23.6488 123.773 23.4072 124.006 23.1064L124.778 23.708C124.159 24.6605 123.229 25.1367 121.989 25.1367ZM121.832 18.5059C121.322 18.5059 120.893 18.6927 120.547 19.0664C120.201 19.4355 119.986 19.9551 119.904 20.625H123.609V20.5293C123.573 19.8867 123.4 19.39 123.09 19.0391C122.78 18.6836 122.361 18.5059 121.832 18.5059ZM126.036 21.2402C126.036 20.1055 126.305 19.194 126.843 18.5059C127.381 17.8132 128.085 17.4668 128.955 17.4668C129.821 17.4668 130.507 17.763 131.013 18.3555V14.5H132.277V25H131.115L131.054 24.207C130.548 24.8268 129.844 25.1367 128.941 25.1367C128.085 25.1367 127.385 24.7858 126.843 24.084C126.305 23.3822 126.036 22.4661 126.036 21.3359V21.2402ZM127.301 21.3838C127.301 22.2223 127.474 22.8786 127.82 23.3525C128.167 23.8265 128.645 24.0635 129.256 24.0635C130.058 24.0635 130.644 23.7035 131.013 22.9834V19.5859C130.634 18.8887 130.053 18.54 129.27 18.54C128.65 18.54 128.167 18.7793 127.82 19.2578C127.474 19.7363 127.301 20.445 127.301 21.3838ZM140.508 21.3838C140.508 22.514 140.248 23.4232 139.729 24.1113C139.209 24.7949 138.512 25.1367 137.637 25.1367C136.702 25.1367 135.98 24.8063 135.47 24.1455L135.408 25H134.246V14.5H135.511V18.417C136.021 17.7835 136.725 17.4668 137.623 17.4668C138.521 17.4668 139.225 17.8063 139.735 18.4854C140.25 19.1644 140.508 20.0941 140.508 21.2744V21.3838ZM139.243 21.2402C139.243 20.3789 139.077 19.7135 138.744 19.2441C138.411 18.7747 137.933 18.54 137.309 18.54C136.475 18.54 135.875 18.9274 135.511 19.7021V22.9014C135.898 23.6761 136.502 24.0635 137.322 24.0635C137.928 24.0635 138.4 23.8288 138.737 23.3594C139.075 22.89 139.243 22.1836 139.243 21.2402ZM146.674 25C146.601 24.8542 146.542 24.5944 146.496 24.2207C145.908 24.8314 145.206 25.1367 144.391 25.1367C143.661 25.1367 143.062 24.9316 142.593 24.5215C142.128 24.1068 141.896 23.5827 141.896 22.9492C141.896 22.179 142.187 21.582 142.771 21.1582C143.358 20.7298 144.183 20.5156 145.245 20.5156H146.476V19.9346C146.476 19.4925 146.343 19.1416 146.079 18.8818C145.815 18.6175 145.425 18.4854 144.91 18.4854C144.459 18.4854 144.081 18.5993 143.775 18.8271C143.47 19.055 143.317 19.3307 143.317 19.6543H142.046C142.046 19.2852 142.176 18.9297 142.436 18.5879C142.7 18.2415 143.055 17.9681 143.502 17.7676C143.953 17.5671 144.448 17.4668 144.985 17.4668C145.838 17.4668 146.505 17.681 146.988 18.1094C147.471 18.5332 147.722 19.1188 147.74 19.8662V23.2705C147.74 23.9495 147.827 24.4896 148 24.8906V25H146.674ZM144.575 24.0361C144.972 24.0361 145.348 23.9336 145.703 23.7285C146.059 23.5234 146.316 23.2568 146.476 22.9287V21.4111H145.484C143.935 21.4111 143.16 21.8646 143.16 22.7715C143.16 23.168 143.292 23.4779 143.557 23.7012C143.821 23.9245 144.16 24.0361 144.575 24.0361ZM152.689 24.1045C153.141 24.1045 153.535 23.9678 153.872 23.6943C154.209 23.4209 154.396 23.0791 154.433 22.6689H155.629C155.606 23.0928 155.46 23.4961 155.191 23.8789C154.923 24.2617 154.562 24.5671 154.111 24.7949C153.665 25.0228 153.191 25.1367 152.689 25.1367C151.682 25.1367 150.88 24.8018 150.283 24.1318C149.691 23.4574 149.395 22.5368 149.395 21.3701V21.1582C149.395 20.4382 149.527 19.7979 149.791 19.2373C150.055 18.6768 150.434 18.2415 150.926 17.9316C151.423 17.6217 152.008 17.4668 152.683 17.4668C153.512 17.4668 154.2 17.7152 154.747 18.2119C155.299 18.7087 155.592 19.3535 155.629 20.1465H154.433C154.396 19.668 154.214 19.276 153.886 18.9707C153.562 18.6608 153.161 18.5059 152.683 18.5059C152.04 18.5059 151.541 18.7383 151.186 19.2031C150.835 19.6634 150.659 20.3311 150.659 21.2061V21.4453C150.659 22.2975 150.835 22.9538 151.186 23.4141C151.536 23.8743 152.038 24.1045 152.689 24.1045ZM159.115 21.5752L158.322 22.4023V25H157.058V14.5H158.322V20.8506L158.999 20.0371L161.303 17.6035H162.841L159.963 20.6934L163.176 25H161.692L159.115 21.5752Z" fill="#030303"/>
</svg>
