<svg width="240" height="40" viewBox="0 0 240 40" fill="none" xmlns="http://www.w3.org/2000/svg">
<path d="M43.43 20.98C43.47 20.66 43.5 20.34 43.5 20C43.5 19.66 43.47 19.34 43.43 19.02L45.53 17.37C45.73 17.22 45.78 16.95 45.66 16.73L43.66 13.27C43.54 13.05 43.26 12.97 43.06 13.05L40.56 14.05C40.04 13.65 39.48 13.32 38.86 13.07L38.49 10.42C38.43 10.18 38.22 10 37.99 10H33.99C33.72 10 33.51 10.18 33.49 10.42L33.09 13.07C32.49 13.32 31.92 13.67 31.39 14.05L28.91 13.05C28.68 12.95 28.41 13.05 28.31 13.27L26.31 16.73C26.17 16.95 26.23 17.23 26.41 17.37L28.53 19.02C28.49 19.34 28.46 19.67 28.46 20C28.46 20.33 28.48 20.66 28.52 20.98L26.42 22.63C26.22 22.78 26.17 23.05 26.29 23.27L28.29 26.73C28.41 26.95 28.69 27.03 28.89 26.95L31.39 25.95C31.91 26.35 32.47 26.68 33.09 26.93L33.46 29.58C33.5 29.82 33.71 30 33.96 30H37.96C38.21 30 38.42 29.82 38.46 29.58L38.83 26.93C39.43 26.68 40 26.33 40.53 25.95L43.01 26.95C43.24 27.05 43.51 26.95 43.61 26.73L45.61 23.27C45.74 23.05 45.69 22.77 45.51 22.63L43.39 20.98H43.43ZM36 23.5C34.07 23.5 32.5 21.93 32.5 20C32.5 18.07 34.07 16.5 36 16.5C37.93 16.5 39.5 18.07 39.5 20C39.5 21.93 37.93 23.5 36 23.5Z" fill="#606060"/>
<path d="M75.0879 20.5635C73.9622 20.2399 73.1419 19.8434 72.627 19.374C72.1165 18.9001 71.8613 18.3167 71.8613 17.624C71.8613 16.8402 72.1735 16.193 72.7979 15.6826C73.4268 15.1676 74.2425 14.9102 75.2451 14.9102C75.9287 14.9102 76.5371 15.0423 77.0703 15.3066C77.6081 15.571 78.0228 15.9355 78.3145 16.4004C78.6107 16.8652 78.7588 17.3734 78.7588 17.9248H77.4395C77.4395 17.3232 77.248 16.8516 76.8652 16.5098C76.4824 16.1634 75.9424 15.9902 75.2451 15.9902C74.598 15.9902 74.0921 16.1338 73.7275 16.4209C73.3675 16.7035 73.1875 17.0977 73.1875 17.6035C73.1875 18.0091 73.3584 18.3532 73.7002 18.6357C74.0465 18.9137 74.6322 19.1689 75.457 19.4014C76.2865 19.6338 76.9336 19.8913 77.3984 20.1738C77.8678 20.4518 78.2142 20.7777 78.4375 21.1514C78.6654 21.5251 78.7793 21.9648 78.7793 22.4707C78.7793 23.2773 78.4648 23.9245 77.8359 24.4121C77.207 24.8952 76.3662 25.1367 75.3135 25.1367C74.6299 25.1367 73.9919 25.0068 73.3994 24.7471C72.807 24.4827 72.349 24.1227 72.0254 23.667C71.7064 23.2113 71.5469 22.694 71.5469 22.1152H72.8662C72.8662 22.7168 73.0872 23.193 73.5293 23.5439C73.9759 23.8903 74.5706 24.0635 75.3135 24.0635C76.0062 24.0635 76.5371 23.9222 76.9062 23.6396C77.2754 23.3571 77.46 22.972 77.46 22.4844C77.46 21.9967 77.2891 21.6208 76.9473 21.3564C76.6055 21.0876 75.9857 20.8232 75.0879 20.5635ZM83.3389 25.1367C82.3363 25.1367 81.5205 24.8086 80.8916 24.1523C80.2627 23.4915 79.9482 22.6097 79.9482 21.5068V21.2744C79.9482 20.5407 80.0872 19.8867 80.3652 19.3125C80.6478 18.7337 81.0397 18.2826 81.541 17.959C82.0469 17.6309 82.5938 17.4668 83.1816 17.4668C84.1432 17.4668 84.8906 17.7835 85.4238 18.417C85.957 19.0505 86.2236 19.9574 86.2236 21.1377V21.6641H81.2129C81.2311 22.3932 81.443 22.9834 81.8486 23.4346C82.2588 23.8812 82.7783 24.1045 83.4072 24.1045C83.8538 24.1045 84.2321 24.0133 84.542 23.8311C84.8519 23.6488 85.123 23.4072 85.3555 23.1064L86.1279 23.708C85.5081 24.6605 84.5785 25.1367 83.3389 25.1367ZM83.1816 18.5059C82.6712 18.5059 82.2428 18.6927 81.8965 19.0664C81.5501 19.4355 81.3359 19.9551 81.2539 20.625H84.959V20.5293C84.9225 19.8867 84.7493 19.39 84.4395 19.0391C84.1296 18.6836 83.7103 18.5059 83.1816 18.5059ZM89.4092 15.8125V17.6035H90.79V18.5811H89.4092V23.168C89.4092 23.4642 89.4707 23.6875 89.5938 23.8379C89.7168 23.9837 89.9264 24.0566 90.2227 24.0566C90.3685 24.0566 90.569 24.0293 90.8242 23.9746V25C90.4915 25.0911 90.168 25.1367 89.8535 25.1367C89.2884 25.1367 88.8623 24.9658 88.5752 24.624C88.2881 24.2822 88.1445 23.7969 88.1445 23.168V18.5811H86.7979V17.6035H88.1445V15.8125H89.4092ZM93.9893 15.8125V17.6035H95.3701V18.5811H93.9893V23.168C93.9893 23.4642 94.0508 23.6875 94.1738 23.8379C94.2969 23.9837 94.5065 24.0566 94.8027 24.0566C94.9486 24.0566 95.1491 24.0293 95.4043 23.9746V25C95.0716 25.0911 94.748 25.1367 94.4336 25.1367C93.8685 25.1367 93.4424 24.9658 93.1553 24.624C92.8682 24.2822 92.7246 23.7969 92.7246 23.168V18.5811H91.3779V17.6035H92.7246V15.8125H93.9893ZM98.2275 25H96.9629V17.6035H98.2275V25ZM96.8604 15.6416C96.8604 15.4365 96.9219 15.2633 97.0449 15.1221C97.1725 14.9808 97.3594 14.9102 97.6055 14.9102C97.8516 14.9102 98.0384 14.9808 98.166 15.1221C98.2936 15.2633 98.3574 15.4365 98.3574 15.6416C98.3574 15.8467 98.2936 16.0176 98.166 16.1543C98.0384 16.291 97.8516 16.3594 97.6055 16.3594C97.3594 16.3594 97.1725 16.291 97.0449 16.1543C96.9219 16.0176 96.8604 15.8467 96.8604 15.6416ZM101.454 17.6035L101.495 18.5332C102.06 17.8223 102.799 17.4668 103.71 17.4668C105.273 17.4668 106.062 18.3486 106.075 20.1123V25H104.811V20.1055C104.806 19.5723 104.683 19.1781 104.441 18.9229C104.204 18.6676 103.833 18.54 103.327 18.54C102.917 18.54 102.557 18.6494 102.247 18.8682C101.937 19.0869 101.696 19.374 101.522 19.7295V25H100.258V17.6035H101.454ZM107.682 21.2402C107.682 20.0872 107.948 19.1712 108.481 18.4922C109.015 17.8086 109.721 17.4668 110.601 17.4668C111.503 17.4668 112.207 17.7858 112.713 18.4238L112.774 17.6035H113.93V24.8223C113.93 25.7793 113.645 26.5335 113.075 27.085C112.51 27.6364 111.749 27.9121 110.792 27.9121C110.259 27.9121 109.737 27.7982 109.227 27.5703C108.716 27.3424 108.326 27.0303 108.058 26.6338L108.714 25.875C109.256 26.5449 109.919 26.8799 110.703 26.8799C111.318 26.8799 111.797 26.7067 112.139 26.3604C112.485 26.014 112.658 25.5264 112.658 24.8975V24.2617C112.152 24.8451 111.462 25.1367 110.587 25.1367C109.721 25.1367 109.019 24.7881 108.481 24.0908C107.948 23.3936 107.682 22.4434 107.682 21.2402ZM108.953 21.3838C108.953 22.2178 109.124 22.874 109.466 23.3525C109.808 23.8265 110.286 24.0635 110.901 24.0635C111.699 24.0635 112.285 23.7012 112.658 22.9766V19.5996C112.271 18.8932 111.69 18.54 110.915 18.54C110.3 18.54 109.819 18.7793 109.473 19.2578C109.126 19.7363 108.953 20.445 108.953 21.3838ZM120.15 23.0381C120.15 22.6963 120.021 22.432 119.761 22.2451C119.506 22.0537 119.057 21.8896 118.414 21.7529C117.776 21.6162 117.268 21.4521 116.89 21.2607C116.516 21.0693 116.238 20.8415 116.056 20.5771C115.878 20.3128 115.789 19.9984 115.789 19.6338C115.789 19.0277 116.044 18.515 116.555 18.0957C117.07 17.6764 117.726 17.4668 118.523 17.4668C119.362 17.4668 120.041 17.6833 120.561 18.1162C121.085 18.5492 121.347 19.1029 121.347 19.7773H120.075C120.075 19.431 119.927 19.1325 119.631 18.8818C119.339 18.6312 118.97 18.5059 118.523 18.5059C118.063 18.5059 117.703 18.6061 117.443 18.8066C117.184 19.0072 117.054 19.2692 117.054 19.5928C117.054 19.8981 117.174 20.1283 117.416 20.2832C117.658 20.4382 118.093 20.5863 118.722 20.7275C119.355 20.8688 119.868 21.0374 120.26 21.2334C120.652 21.4294 120.941 21.6663 121.128 21.9443C121.319 22.2178 121.415 22.5527 121.415 22.9492C121.415 23.61 121.151 24.141 120.622 24.542C120.093 24.9385 119.408 25.1367 118.564 25.1367C117.972 25.1367 117.448 25.0319 116.992 24.8223C116.536 24.6126 116.179 24.321 115.919 23.9473C115.664 23.569 115.536 23.1611 115.536 22.7236H116.801C116.824 23.1475 116.992 23.4847 117.307 23.7354C117.626 23.9814 118.045 24.1045 118.564 24.1045C119.043 24.1045 119.426 24.0088 119.713 23.8174C120.005 23.6214 120.15 23.3617 120.15 23.0381Z" fill="#030303"/>
</svg>
