<svg width="240" height="40" viewBox="0 0 240 40" fill="none" xmlns="http://www.w3.org/2000/svg">
<path d="M42.7 16.7H29.3V15H42.7V16.7ZM41 11.7H31V13.3H41V11.7ZM44.2999 20V26.7C44.2999 27.7 43.6 28.3 42.7 28.3H29.3C28.3 28.3 27.7 27.6 27.7 26.7V20C27.7 19 28.4 18.3 29.3 18.3H42.7C43.7 18.3 44.2999 19.1 44.2999 20ZM39.3 23.3L34.3 20.6V26L39.3 23.3Z" fill="#606060"/>
<path d="M75.0879 20.5635C73.9622 20.2399 73.1419 19.8434 72.627 19.374C72.1165 18.9001 71.8613 18.3167 71.8613 17.624C71.8613 16.8402 72.1735 16.193 72.7979 15.6826C73.4268 15.1676 74.2425 14.9102 75.2451 14.9102C75.9287 14.9102 76.5371 15.0423 77.0703 15.3066C77.6081 15.571 78.0228 15.9355 78.3145 16.4004C78.6107 16.8652 78.7588 17.3734 78.7588 17.9248H77.4395C77.4395 17.3232 77.248 16.8516 76.8652 16.5098C76.4824 16.1634 75.9424 15.9902 75.2451 15.9902C74.598 15.9902 74.0921 16.1338 73.7275 16.4209C73.3675 16.7035 73.1875 17.0977 73.1875 17.6035C73.1875 18.0091 73.3584 18.3532 73.7002 18.6357C74.0465 18.9137 74.6322 19.1689 75.457 19.4014C76.2865 19.6338 76.9336 19.8913 77.3984 20.1738C77.8678 20.4518 78.2142 20.7777 78.4375 21.1514C78.6654 21.5251 78.7793 21.9648 78.7793 22.4707C78.7793 23.2773 78.4648 23.9245 77.8359 24.4121C77.207 24.8952 76.3662 25.1367 75.3135 25.1367C74.6299 25.1367 73.9919 25.0068 73.3994 24.7471C72.807 24.4827 72.349 24.1227 72.0254 23.667C71.7064 23.2113 71.5469 22.694 71.5469 22.1152H72.8662C72.8662 22.7168 73.0872 23.193 73.5293 23.5439C73.9759 23.8903 74.5706 24.0635 75.3135 24.0635C76.0062 24.0635 76.5371 23.9222 76.9062 23.6396C77.2754 23.3571 77.46 22.972 77.46 22.4844C77.46 21.9967 77.2891 21.6208 76.9473 21.3564C76.6055 21.0876 75.9857 20.8232 75.0879 20.5635ZM84.8359 24.2686C84.3438 24.8473 83.6214 25.1367 82.6689 25.1367C81.8805 25.1367 81.279 24.9089 80.8643 24.4531C80.4541 23.9928 80.2467 23.3138 80.2422 22.416V17.6035H81.5068V22.3818C81.5068 23.5029 81.9626 24.0635 82.874 24.0635C83.8402 24.0635 84.4827 23.7035 84.8018 22.9834V17.6035H86.0664V25H84.8633L84.8359 24.2686ZM94.2559 21.3838C94.2559 22.514 93.9961 23.4232 93.4766 24.1113C92.957 24.7949 92.2598 25.1367 91.3848 25.1367C90.4505 25.1367 89.7282 24.8063 89.2178 24.1455L89.1562 25H87.9941V14.5H89.2588V18.417C89.7692 17.7835 90.4733 17.4668 91.3711 17.4668C92.2689 17.4668 92.973 17.8063 93.4834 18.4854C93.9984 19.1644 94.2559 20.0941 94.2559 21.2744V21.3838ZM92.9912 21.2402C92.9912 20.3789 92.8249 19.7135 92.4922 19.2441C92.1595 18.7747 91.681 18.54 91.0566 18.54C90.2227 18.54 89.6234 18.9274 89.2588 19.7021V22.9014C89.6462 23.6761 90.25 24.0635 91.0703 24.0635C91.6764 24.0635 92.1481 23.8288 92.4854 23.3594C92.8226 22.89 92.9912 22.1836 92.9912 21.2402ZM100.162 23.0381C100.162 22.6963 100.032 22.432 99.7725 22.2451C99.5173 22.0537 99.0684 21.8896 98.4258 21.7529C97.7878 21.6162 97.2796 21.4521 96.9014 21.2607C96.5277 21.0693 96.2497 20.8415 96.0674 20.5771C95.8896 20.3128 95.8008 19.9984 95.8008 19.6338C95.8008 19.0277 96.056 18.515 96.5664 18.0957C97.0814 17.6764 97.7376 17.4668 98.5352 17.4668C99.3737 17.4668 100.053 17.6833 100.572 18.1162C101.096 18.5492 101.358 19.1029 101.358 19.7773H100.087C100.087 19.431 99.9388 19.1325 99.6426 18.8818C99.3509 18.6312 98.9818 18.5059 98.5352 18.5059C98.0749 18.5059 97.7148 18.6061 97.4551 18.8066C97.1953 19.0072 97.0654 19.2692 97.0654 19.5928C97.0654 19.8981 97.1862 20.1283 97.4277 20.2832C97.6693 20.4382 98.1045 20.5863 98.7334 20.7275C99.3669 20.8688 99.8796 21.0374 100.271 21.2334C100.663 21.4294 100.953 21.6663 101.14 21.9443C101.331 22.2178 101.427 22.5527 101.427 22.9492C101.427 23.61 101.162 24.141 100.634 24.542C100.105 24.9385 99.4193 25.1367 98.5762 25.1367C97.9837 25.1367 97.4596 25.0319 97.0039 24.8223C96.5482 24.6126 96.1904 24.321 95.9307 23.9473C95.6755 23.569 95.5479 23.1611 95.5479 22.7236H96.8125C96.8353 23.1475 97.0039 23.4847 97.3184 23.7354C97.6374 23.9814 98.0566 24.1045 98.5762 24.1045C99.0547 24.1045 99.4375 24.0088 99.7246 23.8174C100.016 23.6214 100.162 23.3617 100.162 23.0381ZM106.041 24.1045C106.492 24.1045 106.886 23.9678 107.224 23.6943C107.561 23.4209 107.748 23.0791 107.784 22.6689H108.98C108.958 23.0928 108.812 23.4961 108.543 23.8789C108.274 24.2617 107.914 24.5671 107.463 24.7949C107.016 25.0228 106.542 25.1367 106.041 25.1367C105.034 25.1367 104.232 24.8018 103.635 24.1318C103.042 23.4574 102.746 22.5368 102.746 21.3701V21.1582C102.746 20.4382 102.878 19.7979 103.143 19.2373C103.407 18.6768 103.785 18.2415 104.277 17.9316C104.774 17.6217 105.36 17.4668 106.034 17.4668C106.864 17.4668 107.552 17.7152 108.099 18.2119C108.65 18.7087 108.944 19.3535 108.98 20.1465H107.784C107.748 19.668 107.565 19.276 107.237 18.9707C106.914 18.6608 106.513 18.5059 106.034 18.5059C105.392 18.5059 104.893 18.7383 104.537 19.2031C104.186 19.6634 104.011 20.3311 104.011 21.2061V21.4453C104.011 22.2975 104.186 22.9538 104.537 23.4141C104.888 23.8743 105.389 24.1045 106.041 24.1045ZM113.978 18.7383C113.786 18.7064 113.579 18.6904 113.355 18.6904C112.526 18.6904 111.963 19.0436 111.667 19.75V25H110.402V17.6035H111.633L111.653 18.458C112.068 17.7972 112.656 17.4668 113.417 17.4668C113.663 17.4668 113.85 17.4987 113.978 17.5625V18.7383ZM116.521 25H115.256V17.6035H116.521V25ZM115.153 15.6416C115.153 15.4365 115.215 15.2633 115.338 15.1221C115.465 14.9808 115.652 14.9102 115.898 14.9102C116.145 14.9102 116.331 14.9808 116.459 15.1221C116.587 15.2633 116.65 15.4365 116.65 15.6416C116.65 15.8467 116.587 16.0176 116.459 16.1543C116.331 16.291 116.145 16.3594 115.898 16.3594C115.652 16.3594 115.465 16.291 115.338 16.1543C115.215 16.0176 115.153 15.8467 115.153 15.6416ZM124.799 21.3838C124.799 22.5094 124.541 23.4163 124.026 24.1045C123.511 24.7926 122.814 25.1367 121.935 25.1367C121.037 25.1367 120.33 24.8519 119.815 24.2822V27.8438H118.551V17.6035H119.706L119.768 18.4238C120.283 17.7858 120.998 17.4668 121.914 17.4668C122.803 17.4668 123.505 17.8018 124.02 18.4717C124.539 19.1416 124.799 20.0736 124.799 21.2676V21.3838ZM123.534 21.2402C123.534 20.4062 123.356 19.7477 123.001 19.2646C122.646 18.7816 122.158 18.54 121.538 18.54C120.772 18.54 120.198 18.8796 119.815 19.5586V23.0928C120.194 23.7673 120.772 24.1045 121.552 24.1045C122.158 24.1045 122.639 23.8652 122.994 23.3867C123.354 22.9036 123.534 22.1882 123.534 21.2402ZM128.128 15.8125V17.6035H129.509V18.5811H128.128V23.168C128.128 23.4642 128.189 23.6875 128.312 23.8379C128.436 23.9837 128.645 24.0566 128.941 24.0566C129.087 24.0566 129.288 24.0293 129.543 23.9746V25C129.21 25.0911 128.887 25.1367 128.572 25.1367C128.007 25.1367 127.581 24.9658 127.294 24.624C127.007 24.2822 126.863 23.7969 126.863 23.168V18.5811H125.517V17.6035H126.863V15.8125H128.128ZM132.366 25H131.102V17.6035H132.366V25ZM130.999 15.6416C130.999 15.4365 131.061 15.2633 131.184 15.1221C131.311 14.9808 131.498 14.9102 131.744 14.9102C131.99 14.9102 132.177 14.9808 132.305 15.1221C132.432 15.2633 132.496 15.4365 132.496 15.6416C132.496 15.8467 132.432 16.0176 132.305 16.1543C132.177 16.291 131.99 16.3594 131.744 16.3594C131.498 16.3594 131.311 16.291 131.184 16.1543C131.061 16.0176 130.999 15.8467 130.999 15.6416ZM134.062 21.2334C134.062 20.5088 134.203 19.8571 134.485 19.2783C134.772 18.6995 135.169 18.2529 135.675 17.9385C136.185 17.624 136.766 17.4668 137.418 17.4668C138.425 17.4668 139.239 17.8154 139.858 18.5127C140.483 19.21 140.795 20.1374 140.795 21.2949V21.3838C140.795 22.1038 140.656 22.751 140.378 23.3252C140.104 23.8949 139.71 24.3392 139.195 24.6582C138.685 24.9772 138.097 25.1367 137.432 25.1367C136.429 25.1367 135.616 24.7881 134.991 24.0908C134.371 23.3936 134.062 22.4707 134.062 21.3223V21.2334ZM135.333 21.3838C135.333 22.2041 135.522 22.8626 135.9 23.3594C136.283 23.8561 136.794 24.1045 137.432 24.1045C138.074 24.1045 138.585 23.8538 138.963 23.3525C139.341 22.8467 139.53 22.1403 139.53 21.2334C139.53 20.4222 139.337 19.766 138.949 19.2646C138.566 18.7588 138.056 18.5059 137.418 18.5059C136.794 18.5059 136.29 18.7542 135.907 19.251C135.524 19.7477 135.333 20.4587 135.333 21.3838ZM143.577 17.6035L143.618 18.5332C144.183 17.8223 144.922 17.4668 145.833 17.4668C147.396 17.4668 148.185 18.3486 148.198 20.1123V25H146.934V20.1055C146.929 19.5723 146.806 19.1781 146.564 18.9229C146.327 18.6676 145.956 18.54 145.45 18.54C145.04 18.54 144.68 18.6494 144.37 18.8682C144.06 19.0869 143.819 19.374 143.646 19.7295V25H142.381V17.6035H143.577ZM154.412 23.0381C154.412 22.6963 154.282 22.432 154.022 22.2451C153.767 22.0537 153.318 21.8896 152.676 21.7529C152.038 21.6162 151.53 21.4521 151.151 21.2607C150.778 21.0693 150.5 20.8415 150.317 20.5771C150.14 20.3128 150.051 19.9984 150.051 19.6338C150.051 19.0277 150.306 18.515 150.816 18.0957C151.331 17.6764 151.988 17.4668 152.785 17.4668C153.624 17.4668 154.303 17.6833 154.822 18.1162C155.346 18.5492 155.608 19.1029 155.608 19.7773H154.337C154.337 19.431 154.189 19.1325 153.893 18.8818C153.601 18.6312 153.232 18.5059 152.785 18.5059C152.325 18.5059 151.965 18.6061 151.705 18.8066C151.445 19.0072 151.315 19.2692 151.315 19.5928C151.315 19.8981 151.436 20.1283 151.678 20.2832C151.919 20.4382 152.354 20.5863 152.983 20.7275C153.617 20.8688 154.13 21.0374 154.521 21.2334C154.913 21.4294 155.203 21.6663 155.39 21.9443C155.581 22.2178 155.677 22.5527 155.677 22.9492C155.677 23.61 155.412 24.141 154.884 24.542C154.355 24.9385 153.669 25.1367 152.826 25.1367C152.234 25.1367 151.71 25.0319 151.254 24.8223C150.798 24.6126 150.44 24.321 150.181 23.9473C149.925 23.569 149.798 23.1611 149.798 22.7236H151.062C151.085 23.1475 151.254 23.4847 151.568 23.7354C151.887 23.9814 152.307 24.1045 152.826 24.1045C153.305 24.1045 153.688 24.0088 153.975 23.8174C154.266 23.6214 154.412 23.3617 154.412 23.0381Z" fill="#030303"/>
</svg>
