<svg width="240" height="40" viewBox="0 0 240 40" fill="none" xmlns="http://www.w3.org/2000/svg">
<path d="M41.5301 19.2C41.3001 18.9 41.0301 18.64 40.7701 18.38C40.1201 17.78 39.3701 17.35 38.7401 16.72C37.2801 15.26 36.9601 12.85 37.8901 11C36.9901 11.23 36.1401 11.75 35.4401 12.32C32.9001 14.4 31.9001 18.07 33.1001 21.22C33.1401 21.32 33.1801 21.42 33.1801 21.55C33.1801 21.77 33.0301 21.97 32.8301 22.05C32.6101 22.15 32.3701 22.09 32.1901 21.93C32.1301 21.88 32.0901 21.83 32.0401 21.76C30.9401 20.33 30.7601 18.28 31.5101 16.64C29.8701 18 29.0001 20.3 29.1201 22.47C29.1601 22.97 29.2201 23.47 29.3901 23.97C29.5301 24.57 29.7901 25.17 30.1101 25.7C31.1501 27.43 32.9801 28.67 34.9501 28.92C37.0501 29.19 39.3001 28.8 40.9101 27.32C42.7101 25.66 43.3601 23.02 42.4101 20.72L42.2801 20.46C42.0801 20.01 41.8101 19.59 41.5001 19.21L41.5301 19.2ZM38.4301 25.5C38.1501 25.74 37.7001 26 37.3501 26.1C36.2501 26.48 35.1501 25.94 34.4701 25.28C35.6701 25 36.3701 24.12 36.5701 23.23C36.7401 22.43 36.4301 21.77 36.3001 21C36.1801 20.26 36.2001 19.63 36.5001 18.94C36.6501 19.32 36.8501 19.7 37.0801 20C37.8401 21 39.0301 21.44 39.2801 22.8C39.3201 22.94 39.3401 23.08 39.3401 23.23C39.3701 24.05 39.0201 24.95 38.4201 25.49L38.4301 25.5Z" fill="#606060"/>
<path d="M79.0322 16.127H75.833V25H74.5273V16.127H71.335V15.0469H79.0322V16.127ZM83.3662 18.7383C83.1748 18.7064 82.9674 18.6904 82.7441 18.6904C81.9147 18.6904 81.3519 19.0436 81.0557 19.75V25H79.791V17.6035H81.0215L81.042 18.458C81.4567 17.7972 82.0446 17.4668 82.8057 17.4668C83.0518 17.4668 83.2386 17.4987 83.3662 17.5625V18.7383ZM87.4678 25.1367C86.4652 25.1367 85.6494 24.8086 85.0205 24.1523C84.3916 23.4915 84.0771 22.6097 84.0771 21.5068V21.2744C84.0771 20.5407 84.2161 19.8867 84.4941 19.3125C84.7767 18.7337 85.1686 18.2826 85.6699 17.959C86.1758 17.6309 86.7227 17.4668 87.3105 17.4668C88.2721 17.4668 89.0195 17.7835 89.5527 18.417C90.0859 19.0505 90.3525 19.9574 90.3525 21.1377V21.6641H85.3418C85.36 22.3932 85.5719 22.9834 85.9775 23.4346C86.3877 23.8812 86.9072 24.1045 87.5361 24.1045C87.9827 24.1045 88.361 24.0133 88.6709 23.8311C88.9808 23.6488 89.252 23.4072 89.4844 23.1064L90.2568 23.708C89.637 24.6605 88.7074 25.1367 87.4678 25.1367ZM87.3105 18.5059C86.8001 18.5059 86.3717 18.6927 86.0254 19.0664C85.679 19.4355 85.4648 19.9551 85.3828 20.625H89.0879V20.5293C89.0514 19.8867 88.8783 19.39 88.5684 19.0391C88.2585 18.6836 87.8392 18.5059 87.3105 18.5059ZM93.0186 17.6035L93.0596 18.5332C93.6247 17.8223 94.363 17.4668 95.2744 17.4668C96.8376 17.4668 97.626 18.3486 97.6396 20.1123V25H96.375V20.1055C96.3704 19.5723 96.2474 19.1781 96.0059 18.9229C95.7689 18.6676 95.3975 18.54 94.8916 18.54C94.4814 18.54 94.1214 18.6494 93.8115 18.8682C93.5016 19.0869 93.2601 19.374 93.0869 19.7295V25H91.8223V17.6035H93.0186ZM99.2393 21.2402C99.2393 20.1055 99.5081 19.194 100.046 18.5059C100.584 17.8132 101.288 17.4668 102.158 17.4668C103.024 17.4668 103.71 17.763 104.216 18.3555V14.5H105.48V25H104.318L104.257 24.207C103.751 24.8268 103.047 25.1367 102.145 25.1367C101.288 25.1367 100.588 24.7858 100.046 24.084C99.5081 23.3822 99.2393 22.4661 99.2393 21.3359V21.2402ZM100.504 21.3838C100.504 22.2223 100.677 22.8786 101.023 23.3525C101.37 23.8265 101.848 24.0635 102.459 24.0635C103.261 24.0635 103.847 23.7035 104.216 22.9834V19.5859C103.838 18.8887 103.257 18.54 102.473 18.54C101.853 18.54 101.37 18.7793 101.023 19.2578C100.677 19.7363 100.504 20.445 100.504 21.3838ZM108.823 25H107.559V17.6035H108.823V25ZM107.456 15.6416C107.456 15.4365 107.518 15.2633 107.641 15.1221C107.768 14.9808 107.955 14.9102 108.201 14.9102C108.447 14.9102 108.634 14.9808 108.762 15.1221C108.889 15.2633 108.953 15.4365 108.953 15.6416C108.953 15.8467 108.889 16.0176 108.762 16.1543C108.634 16.291 108.447 16.3594 108.201 16.3594C107.955 16.3594 107.768 16.291 107.641 16.1543C107.518 16.0176 107.456 15.8467 107.456 15.6416ZM112.05 17.6035L112.091 18.5332C112.656 17.8223 113.394 17.4668 114.306 17.4668C115.869 17.4668 116.657 18.3486 116.671 20.1123V25H115.406V20.1055C115.402 19.5723 115.279 19.1781 115.037 18.9229C114.8 18.6676 114.429 18.54 113.923 18.54C113.513 18.54 113.153 18.6494 112.843 18.8682C112.533 19.0869 112.291 19.374 112.118 19.7295V25H110.854V17.6035H112.05ZM118.277 21.2402C118.277 20.0872 118.544 19.1712 119.077 18.4922C119.61 17.8086 120.317 17.4668 121.196 17.4668C122.099 17.4668 122.803 17.7858 123.309 18.4238L123.37 17.6035H124.525V24.8223C124.525 25.7793 124.241 26.5335 123.671 27.085C123.106 27.6364 122.345 27.9121 121.388 27.9121C120.854 27.9121 120.333 27.7982 119.822 27.5703C119.312 27.3424 118.922 27.0303 118.653 26.6338L119.31 25.875C119.852 26.5449 120.515 26.8799 121.299 26.8799C121.914 26.8799 122.393 26.7067 122.734 26.3604C123.081 26.014 123.254 25.5264 123.254 24.8975V24.2617C122.748 24.8451 122.058 25.1367 121.183 25.1367C120.317 25.1367 119.615 24.7881 119.077 24.0908C118.544 23.3936 118.277 22.4434 118.277 21.2402ZM119.549 21.3838C119.549 22.2178 119.72 22.874 120.062 23.3525C120.403 23.8265 120.882 24.0635 121.497 24.0635C122.295 24.0635 122.88 23.7012 123.254 22.9766V19.5996C122.867 18.8932 122.285 18.54 121.511 18.54C120.896 18.54 120.415 18.7793 120.068 19.2578C119.722 19.7363 119.549 20.445 119.549 21.3838Z" fill="#030303"/>
</svg>
