<svg width="240" height="40" viewBox="0 0 240 40" fill="none" xmlns="http://www.w3.org/2000/svg">
<path d="M35.9999 11.67C31.4199 11.67 27.6699 15.42 27.6699 20C27.6699 24.58 31.4199 28.33 35.9999 28.33C40.5799 28.33 44.3299 24.58 44.3299 20C44.3299 15.42 40.5799 11.67 35.9999 11.67ZM39.4999 23.5L35.1699 20.83V15.83H36.4199V20.17L40.1699 22.42L39.4999 23.5Z" fill="#606060"/>
<path d="M74.3018 21.8623L74.4932 23.1748L74.7734 21.9922L76.7422 15.0469H77.8496L79.7705 21.9922L80.0439 23.1953L80.2559 21.8555L81.8008 15.0469H83.1201L80.707 25H79.5107L77.46 17.7471L77.3027 16.9883L77.1455 17.7471L75.0195 25H73.8232L71.417 15.0469H72.7295L74.3018 21.8623ZM88.7188 25C88.6458 24.8542 88.5866 24.5944 88.541 24.2207C87.9531 24.8314 87.2513 25.1367 86.4355 25.1367C85.7064 25.1367 85.1071 24.9316 84.6377 24.5215C84.1729 24.1068 83.9404 23.5827 83.9404 22.9492C83.9404 22.179 84.2321 21.582 84.8154 21.1582C85.4033 20.7298 86.2282 20.5156 87.29 20.5156H88.5205V19.9346C88.5205 19.4925 88.3883 19.1416 88.124 18.8818C87.8597 18.6175 87.4701 18.4854 86.9551 18.4854C86.5039 18.4854 86.1257 18.5993 85.8203 18.8271C85.515 19.055 85.3623 19.3307 85.3623 19.6543H84.0908C84.0908 19.2852 84.2207 18.9297 84.4805 18.5879C84.7448 18.2415 85.1003 17.9681 85.5469 17.7676C85.998 17.5671 86.4925 17.4668 87.0303 17.4668C87.8825 17.4668 88.5501 17.681 89.0332 18.1094C89.5163 18.5332 89.7669 19.1188 89.7852 19.8662V23.2705C89.7852 23.9495 89.8717 24.4896 90.0449 24.8906V25H88.7188ZM86.6201 24.0361C87.0166 24.0361 87.3926 23.9336 87.748 23.7285C88.1035 23.5234 88.361 23.2568 88.5205 22.9287V21.4111H87.5293C85.9798 21.4111 85.2051 21.8646 85.2051 22.7715C85.2051 23.168 85.3372 23.4779 85.6016 23.7012C85.8659 23.9245 86.2054 24.0361 86.6201 24.0361ZM93.4834 15.8125V17.6035H94.8643V18.5811H93.4834V23.168C93.4834 23.4642 93.5449 23.6875 93.668 23.8379C93.791 23.9837 94.0007 24.0566 94.2969 24.0566C94.4427 24.0566 94.6432 24.0293 94.8984 23.9746V25C94.5658 25.0911 94.2422 25.1367 93.9277 25.1367C93.3626 25.1367 92.9365 24.9658 92.6494 24.624C92.3623 24.2822 92.2188 23.7969 92.2188 23.168V18.5811H90.8721V17.6035H92.2188V15.8125H93.4834ZM99.3145 24.1045C99.7656 24.1045 100.16 23.9678 100.497 23.6943C100.834 23.4209 101.021 23.0791 101.058 22.6689H102.254C102.231 23.0928 102.085 23.4961 101.816 23.8789C101.548 24.2617 101.188 24.5671 100.736 24.7949C100.29 25.0228 99.8158 25.1367 99.3145 25.1367C98.3073 25.1367 97.5052 24.8018 96.9082 24.1318C96.3158 23.4574 96.0195 22.5368 96.0195 21.3701V21.1582C96.0195 20.4382 96.1517 19.7979 96.416 19.2373C96.6803 18.6768 97.0586 18.2415 97.5508 17.9316C98.0475 17.6217 98.6331 17.4668 99.3076 17.4668C100.137 17.4668 100.825 17.7152 101.372 18.2119C101.924 18.7087 102.217 19.3535 102.254 20.1465H101.058C101.021 19.668 100.839 19.276 100.511 18.9707C100.187 18.6608 99.7861 18.5059 99.3076 18.5059C98.665 18.5059 98.166 18.7383 97.8105 19.2031C97.4596 19.6634 97.2842 20.3311 97.2842 21.2061V21.4453C97.2842 22.2975 97.4596 22.9538 97.8105 23.4141C98.1615 23.8743 98.6628 24.1045 99.3145 24.1045ZM104.94 18.499C105.501 17.8109 106.23 17.4668 107.128 17.4668C108.691 17.4668 109.479 18.3486 109.493 20.1123V25H108.229V20.1055C108.224 19.5723 108.101 19.1781 107.859 18.9229C107.622 18.6676 107.251 18.54 106.745 18.54C106.335 18.54 105.975 18.6494 105.665 18.8682C105.355 19.0869 105.114 19.374 104.94 19.7295V25H103.676V14.5H104.94V18.499ZM116.233 25H114.969V14.5H116.233V25ZM122.83 25C122.757 24.8542 122.698 24.5944 122.652 24.2207C122.064 24.8314 121.363 25.1367 120.547 25.1367C119.818 25.1367 119.218 24.9316 118.749 24.5215C118.284 24.1068 118.052 23.5827 118.052 22.9492C118.052 22.179 118.343 21.582 118.927 21.1582C119.515 20.7298 120.34 20.5156 121.401 20.5156H122.632V19.9346C122.632 19.4925 122.5 19.1416 122.235 18.8818C121.971 18.6175 121.581 18.4854 121.066 18.4854C120.615 18.4854 120.237 18.5993 119.932 18.8271C119.626 19.055 119.474 19.3307 119.474 19.6543H118.202C118.202 19.2852 118.332 18.9297 118.592 18.5879C118.856 18.2415 119.212 17.9681 119.658 17.7676C120.109 17.5671 120.604 17.4668 121.142 17.4668C121.994 17.4668 122.661 17.681 123.145 18.1094C123.628 18.5332 123.878 19.1188 123.896 19.8662V23.2705C123.896 23.9495 123.983 24.4896 124.156 24.8906V25H122.83ZM120.731 24.0361C121.128 24.0361 121.504 23.9336 121.859 23.7285C122.215 23.5234 122.472 23.2568 122.632 22.9287V21.4111H121.641C120.091 21.4111 119.316 21.8646 119.316 22.7715C119.316 23.168 119.449 23.4779 119.713 23.7012C119.977 23.9245 120.317 24.0361 120.731 24.0361ZM127.595 15.8125V17.6035H128.976V18.5811H127.595V23.168C127.595 23.4642 127.656 23.6875 127.779 23.8379C127.902 23.9837 128.112 24.0566 128.408 24.0566C128.554 24.0566 128.755 24.0293 129.01 23.9746V25C128.677 25.0911 128.354 25.1367 128.039 25.1367C127.474 25.1367 127.048 24.9658 126.761 24.624C126.474 24.2822 126.33 23.7969 126.33 23.168V18.5811H124.983V17.6035H126.33V15.8125H127.595ZM133.528 25.1367C132.526 25.1367 131.71 24.8086 131.081 24.1523C130.452 23.4915 130.138 22.6097 130.138 21.5068V21.2744C130.138 20.5407 130.277 19.8867 130.555 19.3125C130.837 18.7337 131.229 18.2826 131.73 17.959C132.236 17.6309 132.783 17.4668 133.371 17.4668C134.333 17.4668 135.08 17.7835 135.613 18.417C136.146 19.0505 136.413 19.9574 136.413 21.1377V21.6641H131.402C131.421 22.3932 131.632 22.9834 132.038 23.4346C132.448 23.8812 132.968 24.1045 133.597 24.1045C134.043 24.1045 134.422 24.0133 134.731 23.8311C135.041 23.6488 135.312 23.4072 135.545 23.1064L136.317 23.708C135.698 24.6605 134.768 25.1367 133.528 25.1367ZM133.371 18.5059C132.861 18.5059 132.432 18.6927 132.086 19.0664C131.74 19.4355 131.525 19.9551 131.443 20.625H135.148V20.5293C135.112 19.8867 134.939 19.39 134.629 19.0391C134.319 18.6836 133.9 18.5059 133.371 18.5059ZM141.458 18.7383C141.267 18.7064 141.059 18.6904 140.836 18.6904C140.007 18.6904 139.444 19.0436 139.147 19.75V25H137.883V17.6035H139.113L139.134 18.458C139.549 17.7972 140.136 17.4668 140.897 17.4668C141.144 17.4668 141.33 17.4987 141.458 17.5625V18.7383Z" fill="#030303"/>
</svg>
